<?xml version="1.0" encoding="utf-8"?>
<!-- Generator: Adobe Illustrator 24.1.2, SVG Export Plug-In . SVG Version: 6.00 Build 0)  -->
<svg version="1.1" id="Layer_1" xmlns="http://www.w3.org/2000/svg" xmlns:xlink="http://www.w3.org/1999/xlink" x="0px" y="0px"
	 viewBox="0 0 155.6 154.4" style="enable-background:new 0 0 155.6 154.4;" xml:space="preserve">
<style type="text/css">
	.st0{fill:#FFFFFF;}
	.st1{fill:#FFBD00;}
	.st2{fill:#F9C33E;}
	.st3{fill:#DE384E;}
	.st4{fill:#F8FF54;}
	.st5{fill:#272929;}
	.st6{fill:#F9C33E;stroke:#020200;stroke-width:0.5;stroke-miterlimit:10;}
	.st7{fill:#060808;}
	.st8{fill:#15212B;}
</style>
<g id="_x23_ffffffff">
	<path class="st0" d="M14.8,38.3c0.4,0.1-0.1,0.6-0.3,0.7C14.1,38.8,14.4,38.3,14.8,38.3z"/>
	<path class="st0" d="M80.2,49.1c1.3,1.4,2.4,3.3,2.3,5.3c0,1.9-0.9,3.7-2.3,4.9C80.2,55.9,80.2,52.5,80.2,49.1z"/>
	<path class="st0" d="M6,56.9c-0.3-0.4-0.1-0.7,0.3-0.9C6.4,56.4,6.3,56.7,6,56.9z"/>
	<path class="st0" d="M5.1,60.1c-0.2,0-0.2-0.4,0-0.4C5.4,59.6,5.3,60,5.1,60.1z"/>
	<path class="st0" d="M151.7,90.6c0.4,0.2,0.3,0.8-0.2,0.8C151.5,91.1,151.6,90.8,151.7,90.6z"/>
	<path class="st0" d="M3.9,93c-0.5,0-0.6-0.6-0.2-0.8C3.9,92.4,3.9,92.7,3.9,93z"/>
	<path class="st0" d="M9.7,111.2c0,0,0.1,0,0.2,0c0.3,0.6,0.6,1.2,0.9,1.8C10.2,112.6,9.4,112,9.7,111.2z"/>
</g>
<g id="_x23_060808ff">
	<path class="st0" d="M67.1,0.1C68,0,69,0,69.9,0c0.5,4.8,0.9,9.5,1.4,14.3c-0.9,0.1-1.9,0.2-2.8,0.3C68,9.7,67.6,4.9,67.1,0.1z"/>
	<path class="st0" d="M59.6,1.3c0.9-0.2,1.8-0.4,2.7-0.6c1,4.7,2,9.5,2.9,14.2c-2.1,0.5-4.3,0.8-6.4,1.5c-2.6,0.8-5.2,1.7-7.7,2.7
		c-2.3,1-4.6,2.2-6.8,3.5c-2.4-4.2-4.7-8.4-7.1-12.7C38,9.5,38.8,9,39.6,8.5c2,3.6,4.1,7.3,6.1,10.9c1.5-0.9,3.1-1.7,4.8-2.2
		c-0.5-0.3-0.9-0.5-1.4-0.8c-0.6-1.6-1.2-3.3-1.9-4.9c1.9-0.7,3.8-1.5,5.7-2.2c0.8-0.3,1.9-0.2,2.4,0.6s0.7,1.8,1.1,2.7
		c-0.9,0.3-1.7,0.7-2.6,1c-0.3-0.6-0.4-1.5-1-1.9c-0.8-0.3-1.6,0.3-2.3,0.5c0.4,1,0.8,2.1,1.2,3.1c0.6,0.3,1.1,0.5,1.7,0.8
		c2.8-1.2,5.6-2.3,8.6-2.9C61.3,9.4,60.5,5.4,59.6,1.3z"/>
	<path class="st0" d="M79.7,2.4c1,0.1,2.1,0.2,3.1,0.3c-0.1,0.6-0.1,1.2-0.2,1.9c-1-0.1-2.1-0.2-3.1-0.3C79.6,3.6,79.6,3,79.7,2.4z"
		/>
	<path class="st0" d="M84,2.8c1,0.1,2.1,0.2,3.1,0.3C87,3.7,87,4.3,86.9,5c-1-0.1-2.1-0.2-3.1-0.3C83.9,4,83.9,3.4,84,2.8z"/>
	<path class="st0" d="M91,5.7c0.2-0.6,0.3-1.2,0.5-1.8c1,0.3,2,0.5,3,0.8c-0.1,0.6-0.3,1.2-0.5,1.8C93,6.3,92,6,91,5.7z"/>
	<path class="st0" d="M103.8,4.7c0.9,0.4,1.7,0.7,2.6,1c-1.6,3.9-3.1,7.7-4.7,11.6c1.2,0.4,2.3,0.9,3.3,1.6c1.1-1.9,2.2-3.8,3.3-5.6
		c1.8,1,3.5,2.1,5.3,3.1c0.5,0.3,1,0.7,1.2,1.2c0.2,0.4,0,0.9-0.2,1.3c-0.7,1.3-1.5,2.5-2.2,3.8c-0.2,0.2,0,0.5,0.2,0.7
		c-0.3,0.5-0.6,1-0.9,1.6c-1.6-0.9-3.2-1.9-4.8-2.8c-1.1-0.6-2.2-1.4-3.4-1.9c-1.7-0.8-3.3-1.5-5.1-2.2
		C100.2,13.7,102,9.2,103.8,4.7 M107.9,19.7c-0.2,0.3-0.2,0.8,0.2,1.1c0.6,0.4,1.3,0.7,1.9,1.2c0-0.2-0.1-0.5,0-0.8
		c0.6-0.9,1.1-1.9,1.7-2.8c0.2-0.3,0.2-0.7,0-0.9c-0.5-0.5-1.2-0.8-1.8-1.2C109.2,17.4,108.5,18.6,107.9,19.7z"/>
	<path class="st0" d="M78.4,7.7c0.2-1.2,1.4-1.9,2.5-1.8c1.9,0.2,3.8,0.4,5.7,0.5c-0.2,2.1-0.4,4.3-0.6,6.4c2.4,0.3,4.7,1,7,1.7
		c0.6-2.1,1.1-4.2,1.7-6.3c0.9,0.2,1.8,0.5,2.7,0.7c-0.7,2.7-1.4,5.4-2.2,8.1c-3.1-0.8-6.1-1.7-9.2-2.3c-2.7-0.3-5.5-0.5-8.2-0.8
		C78,11.9,78.1,9.8,78.4,7.7 M81.1,8.9c-0.1,1.2-0.2,2.4-0.3,3.6c0.8,0.1,1.6,0.1,2.5,0.2c0.2-1.6,0.3-3.1,0.4-4.7
		c-0.6,0-1.3-0.2-1.9,0C81.3,8.1,81.1,8.5,81.1,8.9z"/>
	<path class="st0" d="M126.3,17c0.4-0.4,0.7-0.8,1.1-1.2c0.5,0.5,1.1,0.9,1.6,1.5c0.3,0.4-0.2,0.8-0.5,1.1c-0.2-0.2-0.4-0.4-0.6-0.6
		c0.1-0.2,0.3-0.3,0.4-0.4c-0.2-0.2-0.4-0.4-0.6-0.6c-0.2,0.3-0.5,0.5-0.7,0.8c0.4,0.4,0.9,0.8,1.3,1.2c-0.1,0.1-0.3,0.3-0.4,0.4
		c-0.8-0.7-1.6-1.4-2.4-2.1c0.1-0.1,0.3-0.3,0.4-0.4C126,16.7,126.1,16.8,126.3,17z"/>
	<path class="st0" d="M118.2,25.6c2.5-2.7,4.9-5.4,7.3-8.1c0.7,0.6,1.4,1.2,2.1,1.9c-2.5,2.8-5,5.6-7.6,8.4c-0.4,0.4-1,0.7-1.5,0.5
		c0.8,0.7,1.6,1.4,2.4,2.2c2.8-3.1,5.7-6.2,8.5-9.4c0.7,0.6,1.4,1.2,2.1,1.9c-3.2,3.6-6.5,7.2-9.7,10.8c-2.5-2.2-4.9-4.5-7.4-6.7
		c0.4-0.5,0.8-0.9,1.2-1.4c0.4,0.3,0.7,0.8,1.3,0.9C117.4,26.5,117.8,26,118.2,25.6z"/>
	<path class="st0" d="M34.1,19.3c0.5-0.4,1.2-0.9,1.9-0.8c0.5,0,0.8,0.4,1.1,0.7c0.9,1.2,1.8,2.3,2.7,3.5c0.2,0.2,0.5,0.1,0.7,0
		c0.4,0.5,0.7,1,1.1,1.4c-2.4,1.8-4.8,3.7-7.2,5.5c-0.8,0.6-1.6,1.3-2.3,2.1c-1.9,2.1-3.8,4.3-5.7,6.4c-1.5-1.3-3-2.7-4.5-4
		c-1.1-0.8-1-2.5-0.1-3.5c1.2-1.4,2.5-2.8,3.7-4.2c1.6,1.4,3.3,2.9,4.9,4.3c0.9-1.1,1.9-2.2,3.1-2.9c-1.3-1.7-2.7-3.4-4-5.2
		C31,21.7,32.6,20.5,34.1,19.3 M34.3,21.5c-0.5,0.3-1,0.8-1.5,1.1c0.8,1,1.6,2.1,2.4,3.1c0.2,0.3,0.8,0.4,1.1,0.1
		c0.6-0.4,1.2-0.9,1.7-1.3c-0.2-0.1-0.5,0-0.6-0.2c-0.7-0.9-1.4-1.9-2.2-2.8C35,21.2,34.6,21.3,34.3,21.5 M25,30
		c-0.4,0.4-0.8,0.8-1.1,1.4c-0.2,0.4,0,0.9,0.3,1.2c0.9,0.8,1.8,1.6,2.7,2.4c0.5-0.6,1.1-1.2,1.6-1.9C27.3,32.1,26.1,31.1,25,30z"/>
	<path class="st0" d="M21,26.7c0.7-0.8,1.4-1.5,2.1-2.3c0.5,0.4,0.9,0.8,1.4,1.2c-0.7,0.8-1.4,1.5-2.1,2.3
		C21.9,27.5,21.5,27.1,21,26.7z"/>
	<path class="st0" d="M123.7,36.2c3.7-3.1,7.5-6.1,11.3-9.1c0.6,0.7,1.2,1.4,1.8,2.2c-3.7,3.1-7.5,6.1-11.3,9.1
		C124.9,37.6,124.3,36.9,123.7,36.2z"/>
	<path class="st0" d="M20.2,27.5c0.5,0.4,0.9,0.8,1.4,1.2c-0.7,0.8-1.4,1.5-2.1,2.3c-0.5-0.4-0.9-0.8-1.4-1.2
		C18.8,29.1,19.5,28.3,20.2,27.5z"/>
	<path class="st0" d="M139.3,33.3c0.3,0.1,0.7,0.2,1,0.2c0,0.4,0,0.7,0.1,1c-0.3-0.1-0.6-0.1-0.9-0.2
		C139.3,34,139.4,33.6,139.3,33.3z"/>
	<path class="st0" d="M136.2,34.5c0.6-0.3,1.3-0.5,1.9-0.4c-0.5,0.3-1.3,0.2-1.5,0.9c0,0.6,0.4,1.2,0.9,1.6c0.2,0.2,0.4,0.4,0.7,0.3
		c0.3-0.4,0.5-0.8,0.7-1.2c0.4,0,0.8-0.1,1.2-0.1c-0.1,0.3-0.4,0.7-0.1,1c0.3,0.5,1,0.4,1.4,0.2c-0.3,0.5-0.8,0.9-1.1,1.4
		c0.2,0.5,0.6,1,0.9,1.4c0.4,0.2,0.8,0.2,1.1,0.5c-0.3,0-0.6,0-0.8,0.1c0.2,0.3,0.3,0.7,0.6,1c0.3,0.1,0.8-0.1,1,0.3
		c-0.2,0.1-0.5,0.1-0.7,0.2c0,0.3,0.2,0.5,0.3,0.7c0.2,0,0.4-0.1,0.6-0.1c0.2,0.1,0.4,0.2,0.6,0.3c-0.2,0.1-0.5,0.2-0.7,0.4
		s0.1,0.5,0.2,0.7c0.5,0.7,0.6,1.6,1.4,2c-0.1-0.6-0.4-1.2-0.8-1.7c0.4-0.1,0.9-0.3,1.3,0c0.4,0.3,0.5,0.9,0.5,1.4
		c0,0.7,0.3,1.3,0.6,1.9c-0.3,0-0.6,0-0.9,0c-0.2-0.4-0.4-0.8-0.7-1c0.3,0.9,0.8,1.7,1.2,2.5c0.5-0.4,1.2-0.7,1.5-1.4
		c0.3-0.2,0.8,0,1.2,0c-0.4,0.4-0.4,0.9-0.4,1.4c-0.4,0-0.9-0.2-1.3,0.2c-0.6,0.4-1.2,0.7-2,0.7c-0.2-0.1-0.3-0.4-0.4-0.6
		c-0.3-0.8-0.8-1.4-1-2.2c-0.1-0.5,0.5-0.7,0.8-0.9c-0.4-0.1-0.9-0.1-1.3-0.3c-0.4-0.2-0.5-0.8-0.7-1.1c-0.2-0.5-0.7-0.9-0.6-1.4
		c-0.6-0.1-0.7-0.8-0.8-1.2c-0.5-0.4-0.8-1-1-1.6c-0.4-0.4-0.8-0.9-1-1.4c0-0.6,0.5-1,0.8-1.4c-0.4,0.1-0.8-0.1-1.2-0.3
		c-0.5,0.3-1.1,0.6-1.7,0.3c-0.7-0.3-1.3-0.9-1.5-1.6C135.4,35.3,135.8,34.7,136.2,34.5z"/>
	<path class="st0" d="M32.8,36.3c0-0.2,0.3-0.3,0.4-0.1c0.1,0.5,0.2,1.1,0.5,1.6s0,1.2-0.3,1.6c1.6,0.8,3.1,1.8,4.3,3.2
		c0.7,0.9,1.2,2,1,3.2c-0.1,0.8-0.7,1.5-1.1,2.2c0,3.5,0,7,0,10.6c3.6,0.5,7.1,1.3,10.6,2.4c0.3,0,0.4,0.3,0.2,0.5
		c-1.3,1.2-2.5,2.3-3.8,3.5c0,3.3,0.1,6.6,0.1,9.9c0,0.2,0,0.4-0.2,0.6c-1.2,1-2.4,2-3.5,3c-1.4,0-2.9,0-4.4,0c-2.4,0-4.8,0-7.2,0
		c-1.4,0-2.9,0-4.3-0.1c-1-0.8-2-1.7-3.1-2.6c-0.2-0.2-0.5-0.3-0.5-0.6c0-3.4,0-6.8,0-10.2c-1.1-1.2-2.4-2.3-3.7-3.4
		c-0.2-0.1-0.3-0.4-0.1-0.5c3.5-1.4,7.2-2,11-2.4c0-3.5,0-7,0-10.6c-0.5-0.6-1-1.3-1.2-2.1c-0.3-1,0.1-2.2,0.8-3
		c1.2-1.4,2.8-2.5,4.4-3.5c-0.4-0.5-0.6-1.2-0.2-1.7C32.6,37.2,32.7,36.8,32.8,36.3 M32.9,39.1c0.2-0.3,0.4-0.6,0.4-0.9
		c-0.1-0.3-0.2-0.5-0.4-0.7C32.6,37.9,32.4,38.6,32.9,39.1 M28.8,42.9c-0.6,0.6-1.1,1.3-1,2.2c0,0.9,0.5,1.7,1.1,2.4
		c2.7-0.4,5.5-0.4,8.3-0.1c0.6-0.7,1-1.5,1-2.4c0-1-0.6-1.8-1.2-2.5c-1.1-1.2-2.6-2.1-4-2.9C31.4,40.7,30,41.6,28.8,42.9 M29,48
		c0,3.5,0,7,0,10.5c2.6-0.3,5.3-0.3,7.9-0.1c0-3.5,0-7,0-10.4C34.3,47.7,31.7,47.7,29,48 M29.1,59c-3.7,0.3-7.4,0.9-10.9,2.2
		c1.2,1.1,2.4,2.1,3.5,3.2c3.8-0.7,7.7-1.1,11.6-1.1c3.6,0,7.2,0.5,10.8,1.1c1.2-1.1,2.3-2.2,3.5-3.2c-1.9-0.6-3.7-1.1-5.7-1.5
		c-2.1-0.4-4.2-0.9-6.3-0.9C33.4,58.7,31.3,58.9,29.1,59 M21.9,64.9c0,3.3,0,6.6,0,9.9c3.6-0.7,7.3-1.1,11.1-1.2
		c3.7,0,7.4,0.4,11,1.1c0-3.3-0.1-6.5-0.1-9.8c-3.7-0.6-7.4-1-11.2-1C29,64,25.4,64.4,21.9,64.9 M22.2,75.3c1,0.8,2,1.7,2.9,2.5
		c5.2,0,10.3,0,15.4,0.1c1-0.9,2.1-1.8,3.1-2.7c-3.8-0.7-7.7-1.1-11.6-1C28.7,74.3,25.4,74.7,22.2,75.3z"/>
	<path class="st0" d="M122.1,36.3c0-0.2,0.4-0.4,0.4-0.1c0.1,0.5,0.2,1.1,0.5,1.5c0.4,0.5,0,1.2-0.3,1.7c1.4,0.8,2.8,1.7,3.9,2.9
		c0.7,0.8,1.3,1.7,1.4,2.7c0,1.1-0.5,2.1-1.2,2.9c0,3.5,0,7.1,0,10.6c3.6,0.5,7.2,1.3,10.7,2.4c0.3,0,0.2,0.4,0.1,0.5
		c-1.3,1.1-2.5,2.3-3.8,3.5c0,3.3,0.1,6.7,0.1,10c0,0.2-0.1,0.4-0.3,0.5c-1.1,1-2.2,1.9-3.3,2.9c-0.4,0.1-0.9,0.1-1.4,0.1
		c-1,0-2.1,0-3.1,0c-2.4,0-4.7,0-7.1,0c-1.5,0-2.9,0-4.4,0c-1.1-1-2.2-1.9-3.3-2.9c-0.2-0.2-0.2-0.4-0.2-0.7c0-3.3,0-6.6,0-9.9
		c-1.2-1.1-2.3-2.2-3.5-3.2c-0.2-0.2-0.4-0.3-0.3-0.6c0.4-0.3,0.9-0.4,1.3-0.5c3.1-1.1,6.4-1.6,9.7-1.9c0-3.5,0-7.1,0-10.6
		c-0.9-0.9-1.6-2.2-1.2-3.5c0.3-1,1.1-1.9,1.9-2.6c1-0.9,2.2-1.7,3.4-2.4c-0.4-0.5-0.6-1.1-0.3-1.7C121.9,37.3,122,36.8,122.1,36.3
		 M122.3,37.5c-0.4,0.5-0.5,1.2,0,1.7c0.1-0.3,0.4-0.6,0.3-0.9C122.6,37.9,122.4,37.7,122.3,37.5 M119.2,41.9
		c-0.8,0.7-1.6,1.4-2,2.4c-0.4,1.2,0.2,2.4,1,3.2c2.7-0.4,5.5-0.4,8.3-0.1c1-1,1.4-2.5,0.7-3.7c-1.1-1.9-3-3-4.8-4
		C121.2,40.4,120.2,41.1,119.2,41.9 M118.4,48c0,3.5,0,7,0,10.5c2.6-0.3,5.3-0.3,7.9-0.1c0-3.5,0-7,0-10.4
		C123.7,47.7,121,47.7,118.4,48 M116.5,59.2c-3.1,0.4-6.1,0.9-9,2c1.2,1.1,2.4,2.1,3.5,3.2c5-0.8,10-1.3,15-0.9
		c2.5,0.2,4.9,0.5,7.3,1c1.2-1.1,2.4-2.2,3.5-3.3c-2-0.6-4.1-1.2-6.2-1.6c-1.8-0.4-3.6-0.7-5.4-0.8
		C122.4,58.7,119.5,58.9,116.5,59.2 M111.2,64.9c0,3.3,0,6.6,0,9.9c2.5-0.5,5-0.8,7.5-1c4.9-0.4,9.8,0.1,14.7,0.9
		c0-3.3-0.1-6.5-0.1-9.8c-1.9-0.3-3.7-0.6-5.6-0.8C122.2,63.6,116.6,64.1,111.2,64.9 M111.6,75.3c0.9,0.8,1.8,1.6,2.7,2.3
		c0.1,0.2,0.4,0.2,0.6,0.2c5,0,10.1,0,15.1,0.1c1-0.9,2.1-1.8,3.1-2.7c-1.9-0.3-3.8-0.6-5.7-0.8C122.1,73.9,116.7,74.4,111.6,75.3z"
		/>
	<path class="st0" d="M13.9,37.5c0.7-0.2,1.4,0.1,2,0.6c0.5,0.4,1,1,1,1.8c0,0.4-0.3,0.7-0.5,1c-0.3,0.4-0.6,0.7-1,1
		c0.6-1,0.9-2.3,0.3-3.5c0.2,0.6-0.2,1.4-0.8,1.4c-0.8-0.2-1.2-1.1-1.2-1.8C13.6,37.8,13.7,37.6,13.9,37.5 M14.8,38.3
		c-0.3,0-0.7,0.6-0.3,0.7C14.7,38.9,15.1,38.3,14.8,38.3z"/>
	<path class="st0" d="M137.1,38.1c0.3,0.1,0.6,0.1,0.9,0.2c0,0.3,0,0.5,0.1,0.8c0.2,0,0.4,0.1,0.6,0.2c0,0.3,0.1,0.6,0.1,1
		c-0.3-0.1-0.6-0.1-0.8-0.2c0-0.3-0.1-0.6-0.1-0.8c-0.2,0-0.4-0.1-0.6-0.2C137.1,38.7,137.1,38.4,137.1,38.1z"/>
	<path class="st0" d="M11.7,42.5c1.2-0.1,1.4-1.4,2-2.2c0.3,0.4,0.6,0.8,0.9,1.3c-0.7,1.3-1.5,2.6-2.2,3.9c-0.2,0.4-0.6,0.4-1,0.4
		c0.2,0.2,0.3,0.5,0.5,0.7c-0.2,0.3-0.4,0.7-0.6,1.1c0.8,0.6,0.6,1.8,0.3,2.6c-0.2,0.6-0.6,1.3-1.3,1.6c-0.4,0.2-0.9-0.1-1.2-0.4
		c-0.5-0.5-0.8-1.2-0.8-1.9c0.4,0.5,0.6,1.2,1.2,1.4c1-0.3,1.4-1.6,1.4-2.6c-0.5,0.2-0.7,0.7-0.9,1.1c-0.3-0.3-0.5-0.7-0.6-1.1
		c0.4-0.9,0.8-1.8,1.3-2.6c-0.7-0.3-1.4-0.6-2-0.8c-0.2-0.3-0.3-0.7-0.5-1c0.9,0.3,1.8,0.7,2.7,1c0.5-0.2,0.6-0.9,0.9-1.3
		c-0.5-0.2-0.6-0.7-0.6-1.2c-0.1-0.5,0-1.2,0.4-1.6c0.4-0.3,0.9-0.4,1.4-0.3C12.3,40.9,11.8,41.7,11.7,42.5z"/>
	<path class="st0" d="M79.3,49.1c0,4.5,0,9,0,13.5c0.2,0.1,0.9,0.4,1,0.5c0-0.4,0-0.8,0-1.3c0.7,0.5,1.4,1,2.3,1.2
		c1.9,0.6,4,0,5.9,0.7c0.9,0.3,0.7,1.5,1.5,1.9c1,0.8,2.3,0.6,3.4,1c1.2,0.7,1.9,2,2.6,3.2c0.1,0.3,0.6,0.2,0.6-0.1
		c0-1.3,0-2.7,0.4-3.9c0.8-2.3,1.7-4.6,2.6-6.8c0.2-0.5,0.1-1,0-1.5c-0.1-0.6-0.4-1.3-1.1-1.5c-1.7-0.6-3.5-0.4-5.2-1
		c-0.7-0.3-1.3-0.9-1.7-1.6c-0.4-0.8-0.7-1.7-1.5-2c-2.5-1-5.3-0.2-7.8-1.3c-0.7-0.3-1.4-0.6-2-1.1c0.2-0.3,0.4-0.7,0.2-1
		c-0.2-0.3-0.4-0.7-0.6-1.1c-0.1-0.3-0.7-0.3-0.8,0c-0.1,0.4-0.3,0.9-0.4,1.3C78.8,48.6,79.1,48.9,79.3,49.1z M84.3,51.2
		c1.6,0.2,3.3,0.1,4.9,0.5c0.5,0.1,1.1,0.3,1.4,0.8c0.4,0.7,0.7,1.5,1.2,2.1c0.7,0.8,1.7,1.1,2.7,1.3c1.2,0.3,2.5,0.3,3.7,0.6
		c0.5,0.1,0.7,0.6,0.8,1s0.2,0.9,0,1.4c-0.7,1.8-1.4,3.5-2.1,5.4c-0.5,1.4-0.9,2.9-0.9,4.3c-0.6-0.9-1.2-1.7-2-2.3
		c-1-0.6-2.3-0.3-3.3-1c-0.8-0.4-0.7-1.6-1.5-2c-1.7-0.8-3.7-0.4-5.5-0.6c-1.2-0.2-2.4-0.8-3.3-1.7c1.8-1.3,2.8-3.6,2.9-5.8
		c0-1.8-0.8-3.5-1.9-4.9C82.2,50.7,83.3,51.1,84.3,51.2z M80.2,50c1.3,1.4,2.4,3.3,2.3,5.3c0,1.9-0.9,3.7-2.3,4.9
		C80.2,56.8,80.2,53.4,80.2,50z M79.7,47.6c0.2,0.2,0.6,0.5,0.3,0.9c-0.2,0.3-0.4,0-0.5-0.2C79.5,48.1,79.6,47.9,79.7,47.6z"/>
	<path class="st0" d="M78,58c0.2-0.2,0.4-0.4,0.4-0.6c0.1-0.4-0.2-0.6-0.4-0.9c0.2-0.3,0.3-0.6,0.3-1s-0.4-0.8-0.6-1.1
		c0-0.3-0.1-0.5-0.4-0.7c-0.2,0.2-0.4,0.4-0.4,0.7c-0.3,0.3-0.6,0.7-0.6,1.1c0,0.4,0.2,0.7,0.3,1c-0.2,0.2-0.4,0.4-0.4,0.7
		s0.3,0.6,0.4,0.8c-0.5,0.6-0.9,1.3-1,2.1c0,0.7,0.4,1.3,0.7,1.9c0.1-0.1,0.2-0.1,0.4-0.2c0.1-0.1,0.3-0.1,0.4-0.2l0.2-0.1l0,0l0,0
		c0,0,0.6,0.3,0.9,0.5c0.4-0.6,0.7-1.2,0.7-1.8C78.9,59.3,78.5,58.6,78,58z"/>
	<path class="st0" d="M145.8,51.7c0.9-0.6,1.9-1.1,2.8-1.7c0.5,0,0.9,0.1,1.4,0.1c-0.9,0.6-1.8,1.2-2.8,1.6
		C146.8,51.9,146.3,51.8,145.8,51.7z"/>
	<path class="st0" d="M3.7,53.1c0.1-0.2,0.1-0.5,0.3-0.7c0,0.3,0,0.6,0,0.9c-0.1,0-0.3,0.1-0.4,0.2c-0.1-0.1-0.2-0.2-0.3-0.2
		C3.5,53.3,3.6,53.2,3.7,53.1z"/>
	<path class="st0" d="M3.4,53.2c-0.2-0.1-0.1-0.7,0.2-0.5C3.7,52.9,3.6,53.1,3.4,53.2z"/>
	<path class="st0" d="M4.3,52.8c1.1,0.1,2.2,0.3,3.2,0.7c0.5,0.2,0.7,0.6,1,1c-0.9-0.2-1.8-0.4-2.7-0.5C5,53.9,4.6,53.2,4.3,52.8z"
		/>
	<path class="st0" d="M145.8,55.2c0-0.6,0.6-1,1.1-0.9c0.6,0,1.3,0.1,1.7,0.5c-0.5,0.1-1.2-0.3-1.5,0.3c-0.2,0.9,0.3,1.8,1,2.4
		c0.4-0.3,0.6-0.7,0.9-1.2c0.4,0.1,0.8,0.2,1.3,0.3c-0.2,0.4-0.5,0.8-0.6,1.2c0.1,0.8,0.4,1.7,0.6,2.5c0.3-0.2,0.5-0.5,0.7-0.7
		c0.3,0.1,0.6,0.2,1,0.4c-0.4,0.6-1,1.2-1.7,1.2c-0.4,0-1.2,0.2-1.3-0.3c-0.2-0.9-0.5-1.9-0.7-2.8c-0.4,0-0.9,0.1-1.3-0.2
		C146.2,57,145.8,56.1,145.8,55.2z"/>
	<path class="st0" d="M150.1,54.3c0.3,0.2,0.6,0.3,0.9,0.5c-0.1,0.3-0.2,0.7-0.3,1c-0.3-0.2-0.5-0.3-0.8-0.5
		C149.9,54.9,150,54.6,150.1,54.3z"/>
	<path class="st0" d="M5.5,55.4c0.8-0.2,1.7,0.2,2.4,0.6c0.5,0.4,0.9,1,0.7,1.7c-0.2,0.6-0.5,1.2-0.9,1.7C8,58.3,8,56.9,7,56
		c0.4,0.5,0.3,1.4-0.3,1.6c-0.9,0-1.6-0.8-1.8-1.6C4.9,55.6,5.3,55.5,5.5,55.4 M6,56.9c0.3-0.2,0.4-0.6,0.3-0.9
		C5.9,56.2,5.7,56.6,6,56.9z"/>
	<path class="st0" d="M2.4,58.3c0.5,0.1,0.8-0.3,1.1-0.5c0.2,0.3,0.4,0.5,0.5,0.8c0.3,0.2,0.5,0.4,0.8,0.6c0.6-0.1,1.3,0.1,1.9,0.3
		c-0.2,0.9-0.5,1.8-0.7,2.7c-0.4-0.2-0.8-0.4-1.2-0.7c0.1-0.6,0-1.2-0.2-1.7C4.3,60,4,60.3,3.7,60.6c0,0,0.1,0.1,0.1,0.2
		c-0.3,0.4-0.6,0.9-0.9,1.2c-0.5,0.1-0.9-0.2-1.3-0.4c0.7-1,1.5-1.9,2.6-2.4C3.8,59,3.3,58.9,2.9,59C2.7,58.9,2.6,58.6,2.4,58.3
		 M5.1,60.1c0.2,0,0.2-0.4,0-0.4C4.9,59.6,4.9,60.1,5.1,60.1z"/>
	<path class="st0" d="M147.5,59.6c0.3,0.2,0.6,0.4,0.8,0.5c-0.1,0.3-0.2,0.7-0.3,1c-0.3-0.2-0.5-0.4-0.8-0.6
		C147.3,60.3,147.4,59.9,147.5,59.6z"/>
	<path class="st0" d="M2.1,64.3c0.3-0.7,1.1-1.2,1.9-1.1c0.6,0.1,1.2,0.3,1.7,0.6c-0.2,0.8-0.2,1.6-0.5,2.3C4.8,66.3,4.3,66,3.8,66
		c0.2-0.7,0.3-1.4,0.4-2.1C3.6,64,3,64.5,2.9,65.2C2.6,64.9,2,64.7,2.1,64.3z"/>
	<path class="st0" d="M149,63.6c0.6-0.3,1.3-0.1,1.9,0.2c0.3,0.2,0.7,0.4,0.8,0.8c-0.5-0.2-1-0.6-1.6-0.5c-0.3,0.1-0.4,0.4-0.4,0.7
		c-0.1,0.8,0.2,1.5,0.6,2.2c0.2-0.4,0.2-1,0.1-1.4c0.4,0.1,0.8,0.2,1.1,0.5c0.2,0.9,0.4,1.9,0.4,2.8c0.7-0.1,1.4-0.3,2.2-0.5
		c0.3,0.2,0.6,0.4,1,0.6c-0.8,0.2-1.6,0.4-2.3,0.6c-0.2,0.1-0.4,0.1-0.6,0.2c0,0.5,0.1,1,0.1,1.5c0.7-0.1,1.2,0.6,1.5,1.1
		c0.5,0.7,0,1.8-0.7,2.1c0.3-0.8,0.3-1.6-0.1-2.4c-0.9,0.8-0.4,2-0.4,2.9c-0.5-0.2-0.9-0.3-1.4-0.5c-0.2-1.5-0.3-3-0.5-4.4
		c-0.1-0.4,0.2-0.7,0.6-0.9c-0.3-0.1-0.5-0.2-0.8-0.3c0-0.4-0.1-0.8-0.1-1.1c-1-0.1-1.6-1.2-1.8-2.1C148.5,64.8,148.4,64,149,63.6z"
		/>
	<path class="st0" d="M147.9,64.3c0.2,0.2,0.4,0.4,0.6,0.6c-0.1,0.2-0.1,0.5-0.2,0.7c0.1,0.1,0.2,0.3,0.4,0.4
		c-0.1,0.3-0.1,0.6-0.2,0.9c-0.2-0.2-0.3-0.4-0.5-0.5c0-0.3,0-0.5,0.1-0.8C147.7,65.3,147.8,64.8,147.9,64.3z"/>
	<path class="st0" d="M31.7,66.1c0.8-0.5,1.9-0.4,2.6,0.3c0.4,0.4,0.7,1,0.7,1.6c0,1.3,0,2.6,0,3.9c-1.4-0.2-2.9-0.2-4.3,0
		c0-1.5,0-3,0-4.5C30.8,66.9,31.2,66.4,31.7,66.1z"/>
	<path class="st0" d="M120,67.5c0.2-1,1.2-1.9,2.2-1.8c1,0,1.9,1,2.1,1.9c0,1.4,0,2.8,0,4.3c-1.4-0.2-2.9-0.2-4.3,0
		C120,70.5,120,69,120,67.5z"/>
	<path class="st0" d="M24.7,68.6c0.1-1,0.8-2.2,1.9-2.2c1-0.1,1.9,0.9,1.9,1.9c0,1.4,0.1,2.7,0.1,4.1c-1.3,0.2-2.6,0.3-3.9,0.5
		C24.7,71.4,24.7,70,24.7,68.6z"/>
	<path class="st0" d="M37.9,66.8c0.6-0.6,1.8-0.6,2.4,0.1c0.5,0.5,0.8,1.2,0.8,1.9c0,1.4,0,2.7,0,4.1c-1.3-0.2-2.6-0.3-3.9-0.5
		c0-1.4,0.1-2.7,0.1-4.1C37.3,67.7,37.5,67.2,37.9,66.8z"/>
	<path class="st0" d="M114.1,68.6c0.1-1.1,0.8-2.3,2-2.2c1,0,1.8,1,1.8,1.9c0,1.4,0.1,2.7,0.1,4.1c-1.3,0.2-2.6,0.3-3.9,0.5
		C114.1,71.4,114.1,70,114.1,68.6z"/>
	<path class="st0" d="M126.6,68.3c0-1,0.9-2,1.9-1.9c1.1,0,1.9,1.2,1.9,2.2c0,1.4,0,2.8,0,4.3c-1.3-0.2-2.6-0.3-3.9-0.5
		C126.5,71,126.6,69.6,126.6,68.3z"/>
	<path class="st0" d="M0.3,68.5c1.1-0.1,2.1-0.1,3.2,0c0.5,0.1,0.9,0.4,1.2,0.8c-1.1,0-2.2,0.1-3.3,0C1,69.1,0.7,68.8,0.3,68.5z"/>
	<path class="st0" d="M1.1,70.3c0.4,0.2,0.7,0.6,1.1,0.5c0.7-0.1,1.5,0,2.1,0.4c0,1-0.1,2-0.2,2.9c-0.1,0.6-0.8,0.6-1.2,0.5
		c0.3,0.3,0.7,0.6,1,0.9c0.2,0.4,0,0.8,0,1.3c-0.1,0.5,0.1,1.1-0.2,1.6c0.4,0.4,0.2,1,0.1,1.5c0.2,0.6,0.2,1.3,0,1.9
		C4,82.3,4,83,3.9,83.5C3.6,83.9,3,84,2.5,84.2c0.4,0.2,0.7,0.5,0.8,0.9c0.6,0,1.3,0.1,1.7,0.6c0.5,0.6,0.7,1.5,0.5,2.3
		c-0.1,0.6-0.8,0.8-1.4,0.8c-0.6-0.1-1.3-0.2-1.7-0.7c0.5,0.1,1,0.4,1.5,0.2c0.3-0.2,0.4-0.6,0.4-0.9c0-0.6-0.1-1.2-0.5-1.7
		c-0.5,0.2-0.9,0.5-1.3,0.7c-0.4-0.2-0.7-0.4-1-0.5c0.3-0.2,0.7-0.4,0.6-0.8c0-0.6-0.7-0.8-1.1-1c0.5-0.2,1.1-0.3,1.6-0.6
		c0.2-0.5,0.1-1.1,0-1.7c-0.2-0.3-0.6-0.6-0.7-1c0.2,0.1,0.5,0.3,0.7,0.4c0-0.4,0.1-0.9,0-1.2c-0.3-0.2-0.6-0.4-0.8-0.7
		c0.3,0,0.5,0.1,0.8,0.2c0.1-0.3,0.1-0.5,0-0.8c-0.5,0-0.8-0.4-0.9-0.8c0.2,0,0.5,0.1,0.8,0.1c0.3-0.1,0.2-0.5,0.2-0.7
		c0.1,0,0.4,0,0.6,0c-0.2,0-0.4,0-0.6,0c0-0.8,0.3-1.7-0.1-2.4c-0.4,0.5-0.3,1.2-0.2,1.8c-0.4-0.1-1-0.2-1.2-0.7s0.1-1,0.3-1.5
		c0.3-0.6,0.4-1.3,0.4-1.9c0.3,0.2,0.6,0.3,0.8,0.5c0,0.4-0.1,0.8,0.2,1.2c0.2-0.9,0.2-1.8,0.2-2.7c-0.5,0.1-0.9,0.1-1.4,0.2
		c-0.3,0-0.5,0.3-0.8,0.3c-0.3-0.2-0.6-0.4-0.9-0.7C0.6,71.2,0.8,70.7,1.1,70.3z"/>
	<path class="st0" d="M150.4,77.3c0.4-0.4,0.9-0.3,1.4-0.1c0.6,0.3,1.1,0.8,1.4,1.4c-0.5-0.3-0.9-0.7-1.4-0.8
		c-0.4-0.1-0.6,0.3-0.7,0.6c-0.2,0.8-0.2,1.6,0.1,2.4c0.4-0.4,0.4-0.9,0.4-1.4c0.4,0.2,0.8,0.4,1,0.8c0,1,0,1.9-0.1,2.9
		c0.7,0,1.4-0.1,2.2,0c0.3,0.2,0.6,0.5,0.9,0.7c-0.9,0-1.9,0.1-2.8,0.1c-0.3,0-0.3,0.3-0.3,0.5c0,0.4,0,0.7-0.1,1.1
		c0.7,0,1,0.8,1.2,1.3c0.4,0.8-0.2,1.8-1.1,1.9c0.5-0.7,0.7-1.6,0.4-2.3c-0.3,0.3-0.7,0.7-0.7,1.1c-0.1,0.6-0.1,1.1-0.2,1.7
		c-0.4-0.3-0.9-0.5-1.3-0.8c0.1-1.5,0.3-3,0.4-4.5c0-0.4,0.4-0.6,0.8-0.7c-0.2-0.1-0.5-0.3-0.7-0.4c0-0.4,0-0.8,0.1-1.2
		c-0.9-0.3-1.3-1.3-1.3-2.2C149.9,78.5,149.9,77.8,150.4,77.3z"/>
	<path class="st0" d="M5.1,82.8c0.2,0.2,0.4,0.4,0.6,0.6c-0.1,0.2-0.2,0.5-0.3,0.8c0.1,0.1,0.3,0.3,0.4,0.4
		c-0.1,0.3-0.2,0.6-0.3,0.9c-0.2-0.2-0.5-0.4-0.7-0.6c0.1-0.3,0.2-0.5,0.3-0.8c-0.2-0.2-0.3-0.3-0.5-0.4C4.9,83.4,5,83.1,5.1,82.8z"
		/>
	<path class="st0" d="M0.9,86.8c0.2,0.2,0.4,0.4,0.7,0.7c-0.1,0.3-0.2,0.7-0.4,1C1,88.3,0.7,88,0.5,87.8C0.6,87.4,0.7,87.1,0.9,86.8
		z"/>
	<path class="st0" d="M149.1,90.2c0.1-0.6,0.3-1.3,0.6-1.8c-0.2,1.2,0.1,2.5,1.1,3.2c-0.3-0.4-0.4-1,0-1.4c0.2-0.3,0.6-0.2,0.9-0.1
		c0.6,0.2,1.1,0.7,1.3,1.3c0,0.4-0.4,0.6-0.7,0.7c-0.8,0.2-1.8,0-2.5-0.5C149.3,91.3,148.9,90.8,149.1,90.2 M151.7,90.6
		c-0.2,0.2-0.2,0.5-0.2,0.8C152,91.4,152.1,90.8,151.7,90.6z"/>
	<path class="st0" d="M2.7,92c0.6-0.7,1.7-0.8,2.5-0.6c0.6,0.1,1.3,0.5,1.4,1.1s0.2,1.3,0,1.9c-0.2-1.2-1-2.3-2.2-2.7
		c0.5,0.3,0.9,1,0.5,1.5c-0.7,0.5-1.8,0.1-2.3-0.5C2.3,92.5,2.5,92.2,2.7,92 M3.9,93c0-0.3,0-0.6-0.2-0.8C3.4,92.4,3.4,93,3.9,93z"
		/>
	<path class="st0" d="M148.4,94.6c0.3-0.5,1.1-0.5,1.6-0.3c0.6,0.3,1.1,0.6,1.4,1.2c-0.5-0.3-0.9-0.8-1.5-0.6
		c-0.5,0.3-0.6,0.9-0.7,1.4c0,0.3-0.1,0.8,0.2,1c0.5,0,0.9-0.1,1.4-0.2c0.3,0.3,0.5,0.6,0.8,0.8c-0.3,0.1-0.8,0.1-0.8,0.5
		c-0.3,0.6,0.4,1,0.7,1.3c-0.6,0-1.2-0.1-1.8,0.1c-0.2,0.4-0.3,0.8-0.4,1.2c-0.2,0.6,0.4,1,0.3,1.5c-0.2-0.2-0.4-0.4-0.6-0.6
		c-0.2,0.4-0.3,0.7-0.4,1.1c0.1,0.4,0.5,0.6,0.5,1c-0.2-0.1-0.4-0.3-0.7-0.4c-0.2,0.2-0.2,0.5-0.3,0.7c0.4,0.2,0.6,0.6,0.6,1
		c-0.3-0.1-0.5-0.3-0.8-0.3c-0.2,0.1-0.3,0.4-0.4,0.6c-0.2,0.8-0.8,1.5-0.6,2.4c0.4-0.4,0.7-1,0.8-1.7c0.4,0.2,0.9,0.6,0.9,1.1
		c0,0.6-0.6,1-0.9,1.4c-0.4,0.4-0.7,1-0.9,1.5c-0.2-0.2-0.4-0.5-0.6-0.7c0.2-0.4,0.3-0.8,0.3-1.2c-0.6,0.8-0.8,1.7-1.2,2.5
		c0.7,0.1,1.4,0.5,2.1,0.3c0.4,0.2,0.5,0.6,0.7,0.9c-0.6-0.1-1,0.3-1.4,0.6c-0.3-0.4-0.5-0.8-1-0.9c-0.7-0.1-1.3-0.5-1.7-1
		c-0.1-0.2,0.1-0.4,0.2-0.6c0.4-0.7,0.6-1.5,1-2.2c0.3-0.4,0.9-0.1,1.3,0c-0.3-0.6-1-1.2-0.5-1.9c0.4-0.6,0.4-1.6,1-2
		c-0.3-0.5,0.2-1,0.4-1.4c0-0.6,0.2-1.3,0.6-1.8c0-0.6,0.2-1.2,0.4-1.7c0.5-0.3,1-0.2,1.6-0.3c-0.3-0.3-0.5-0.7-0.5-1.1
		c-0.6-0.2-1.2-0.5-1.4-1.1C147.9,96.1,148,95.3,148.4,94.6z"/>
	<path class="st0" d="M4.2,94.4c0.5,0.2,1.1,0.1,1.5,0.4c0.4,1.4,0.7,2.9,1.1,4.3c0.1,0.4-0.2,0.7-0.5,1c0.3,0,0.6,0.1,0.8,0.2
		c0.1,0.4,0.2,0.8,0.3,1.2c1,0,1.7,0.8,2,1.7c0.2,0.6,0.5,1.4,0.2,2c-0.2,0.5-0.9,0.6-1.4,0.5c-0.6-0.1-1.2-0.3-1.6-0.8
		c0.6,0.1,1.2,0.4,1.8,0.2c0.3-0.3,0.2-0.8,0.2-1.2c-0.2-0.6-0.4-1.3-0.9-1.7c-0.1,0.5,0,1,0.2,1.4c-0.4,0-0.8-0.1-1.2-0.4
		c-0.3-0.9-0.6-1.9-0.9-2.8c-0.7,0.3-1.4,0.6-2.1,0.8c-0.3-0.1-0.7-0.3-1-0.4c0.7-0.3,1.5-0.6,2.2-0.9c0.2-0.1,0.4-0.1,0.6-0.3
		c0-0.5-0.3-1-0.4-1.5c-0.7,0.2-1.3-0.4-1.7-0.9c-0.6-0.6-0.3-1.8,0.4-2.1c-0.2,0.8-0.1,1.7,0.4,2.3C5,96.5,4.4,95.4,4.2,94.4z"/>
	<path class="st0" d="M152,96.6c0.2-0.3,0.4-0.5,0.7-0.7c0.2,0.3,0.3,0.6,0.5,0.9c-0.3,0.2-0.5,0.5-0.8,0.7
		C152.3,97.2,152.2,96.9,152,96.6z"/>
	<path class="st0" d="M147,97.9c0.2-0.2,0.4-0.5,0.7-0.7c0.1,0.2,0.3,0.5,0.4,0.7c-0.2,0.2-0.4,0.4-0.6,0.6c0.1,0.2,0.2,0.4,0.3,0.6
		c-0.2,0.2-0.5,0.4-0.7,0.7c-0.1-0.3-0.3-0.5-0.4-0.8c0.2-0.2,0.4-0.4,0.6-0.6C147.2,98.3,147.1,98.1,147,97.9z"/>
	<path class="st0" d="M8.7,108.3c0.5-0.2,1-0.1,1.4,0c-0.8,0.5-1.6,1-2.4,1.5c-0.5,0.4-1.2,0.1-1.8,0.1
		C6.8,109.4,7.7,108.8,8.7,108.3z"/>
	<path class="st0" d="M5.5,109.9c0.3,0.2,0.6,0.4,0.8,0.7c-0.2,0-0.3,0.1-0.4,0.4c-0.3,0-1-0.3-0.5-0.6c0.1,0.1,0.3,0.4,0.4,0.5
		C5.8,110.5,5.6,110.2,5.5,109.9z"/>
	<path class="st0" d="M8.5,111c0.1-0.3,0.3-0.8,0.7-0.7c0.6,0.1,1.4,0,2,0.4c0.4,0.6,0.7,1.4,1.1,2c0.2,0.4,0.6,0.9,0.4,1.4
		c0.2,0.1,0.4,0.2,0.5,0.4c0.4,0.6,0.8,1.2,1.1,1.8c0.2,0.5-0.4,0.8-0.7,1.1c0.6,0.1,1.3-0.1,1.7,0.5c0.5,0.8,1.1,1.7,1.7,2.5
		c-0.9,0.7-1.8,1.5-2.7,2.2c-0.4,0-0.8-0.1-1.2-0.1c0.8-0.6,1.6-1.2,2.4-1.9c-0.4-0.6-0.8-1.1-1.2-1.8c-0.2-0.4-0.6-0.8-1-0.9
		c0.1,0.6,0.5,1.2,0.9,1.7c-0.4,0.1-0.9,0.3-1.3,0.1c-0.5-0.3-0.6-0.8-0.6-1.3c-0.1-0.7-0.4-1.3-0.8-1.9c0.3,0,0.6-0.1,0.9-0.1
		c0.2,0.4,0.5,0.7,0.8,1c-0.3-0.9-1-1.7-1.5-2.6c-0.1,0-0.4,0.1-0.5,0.2c-0.2-0.1-0.5-0.2-0.8-0.3c0.3-0.2,1.1-0.2,0.9-0.7
		c-0.7-0.6-1.6-1-2.3-1.6C8.6,111.9,8.3,111.4,8.5,111 M9.7,111.2c-0.3,0.8,0.6,1.4,1.1,1.9c-0.3-0.6-0.6-1.2-0.9-1.8
		C9.8,111.2,9.7,111.2,9.7,111.2z"/>
	<path class="st0" d="M142.9,112.6c1,0.3,2,0.7,3,1c0.4,0.3,0.6,0.8,0.8,1.2c-1-0.3-2-0.6-3-1.1
		C143.4,113.6,143.1,113.1,142.9,112.6z"/>
	<path class="st0" d="M140.5,114.9c0.3-0.2,0.8-0.2,1.1,0c0.7,0.5,1,1.4,1,2.3c-0.4-0.4-0.4-1.2-1.1-1.4c-0.4,0-0.8,0.4-1,0.7
		c-0.4,0.5-0.6,1.1-0.8,1.7c0.5-0.2,0.8-0.6,1.1-1c0.2,0.4,0.5,0.8,0.5,1.2c-0.5,0.8-1,1.6-1.6,2.4c0.6,0.4,1.3,0.7,1.9,1.1
		c0.1,0.4,0.2,0.7,0.3,1.1c-0.9-0.4-1.7-1-2.6-1.4c-0.5,0.2-0.7,0.8-1.1,1.2c0.5,0.3,0.5,0.9,0.4,1.3c0,0.5-0.2,1.1-0.6,1.4
		c-0.4,0.3-1,0.4-1.4,0.2c0.8-0.3,1.4-1,1.5-1.8c-1.2,0-1.6,1.2-2.2,1.9c-0.2-0.4-0.5-0.9-0.7-1.4c0.9-1.2,1.8-2.4,2.7-3.7
		c0.2-0.4,0.7-0.3,1-0.2c-0.1-0.2-0.3-0.5-0.4-0.7c0.2-0.3,0.5-0.7,0.7-1c-0.6-0.7-0.4-1.7-0.1-2.5
		C139.6,115.8,140,115.2,140.5,114.9z"/>
	<path class="st0" d="M17.2,122c0.2-0.1,0.6-0.3,0.7,0c0.7,0.8,1.3,1.7,2,2.6c0.3,0.4,0.6,0.9,0.3,1.3c-0.4,0.7-1.3,1-2.1,1
		c0.2-0.4,0.7-0.3,0.9-0.7c0.2-0.4-0.2-0.7-0.3-1c-0.6-0.8-1.2-1.5-1.8-2.3c-0.2,0.3-0.3,0.6-0.4,1c-0.4,0-0.7,0-1,0
		c0.1-0.4,0.2-0.8,0.4-1.2C16.2,122.3,16.8,122.2,17.2,122z"/>
	<path class="st0" d="M19.3,122.4c0.3,0.1,0.6,0.1,0.9,0.2c0.1,0.3,0.1,0.7,0.1,1c-0.3-0.1-0.7-0.1-1-0.2
		C19.4,123.1,19.4,122.7,19.3,122.4z"/>
	<path class="st0" d="M132,125.7c0.6,0.3,1.1,0.7,1.6,1.1c0.4,0.3,0.7,0.8,0.5,1.2c-0.1,0.2-0.2,0.5-0.3,0.7
		c0.4-0.1,0.6-0.5,0.7-0.9c0.3,0.4,0.7,1.1,0.2,1.6c-0.6,0.4-1.4,0.2-2.1,0.4c-0.2-0.3-0.4-0.7-0.6-1c0.5-0.4,1.1-0.9,1.1-1.6
		C132.6,126.9,131.9,126.4,132,125.7z"/>
	<path class="st0" d="M21.2,128.1c0.4-0.4,0.9-0.4,1.4-0.4c-0.6,0.7-1.2,1.5-1.8,2.2c-0.4,0.6-1.1,0.5-1.7,0.6
		C19.7,129.6,20.4,128.8,21.2,128.1z"/>
	<path class="st0" d="M129.2,130.8c0.5-0.8,1.1-1.5,1.8-2.1c-0.3,1-0.9,1.9-0.9,3c0.5,0.3,1.1,0.4,1.7,0.3l-0.1-0.3
		c0.4-0.1,0.8-0.2,1.2-0.3c0.5,0,0.8,0.6,1,1c-1.2,0.5-2.9,0.8-3.8-0.4c0.1,0.5,0.2,1.1,0.5,1.5c0.2,0.3,0.4,0.5,0.6,0.8
		c0,0.3,0,0.6,0,1c-0.8-0.7-1.5-1.4-2.4-1.9c-0.4,0.3-0.8,0.6-1.2,1c-0.1,0.4-0.1,0.8-0.3,1.2c-0.1-0.3-0.1-0.5-0.2-0.8
		c-0.3,0.2-0.7,0.4-0.9,0.8c0,0.4,0.1,0.7-0.1,1.1c-0.1-0.2-0.2-0.5-0.4-0.7c-0.2,0.1-0.3,0.2-0.5,0.3c-0.2,0.2,0,0.5,0.1,0.7
		c-0.1,0.2-0.2,0.5-0.2,0.7c-0.2-0.2-0.3-0.7-0.6-0.7c-0.6,0.3-1,0.7-1.5,1.1c0.6,0.4,1,1.1,1.7,1.3c0.2,0.4,0.1,0.8,0.1,1.1
		c-0.4-0.4-1-0.2-1.5-0.2c-0.1-0.4,0-0.9-0.4-1.2c-0.5-0.5-1-1.2-1-1.9c0.3-0.4,0.7-0.6,1.1-0.9c0.4-0.2,0.7-0.6,1.2-0.6
		c0-0.6,0.6-0.8,1.1-1c0.3-0.6,0.8-1,1.4-1.2c0.3-0.5,0.8-1,1.3-1.3c0.6-0.1,1,0.5,1.5,0.8C129.3,132.4,128.8,131.6,129.2,130.8z"/>
	<path class="st0" d="M21.8,130.8c0.5-0.7,1.1-1.5,2-1.6c0.6,0.5,1.2,1.1,1.8,1.7c0.2,0.2,0.4,0.4,0.5,0.7c0,0.4-0.3,0.7-0.6,1
		c0.5,0,1-0.2,1.4-0.2c0.5,0.2,0.8,0.7,1.1,1c0.3,0.3,0.8,0.5,0.8,1c0.5,0,0.8,0.3,1,0.7c0.1,0.3,0.5,0.4,0.7,0.5
		c0.4,0.2,0.7,0.6,0.9,0.9c0.5,0.2,1,0.5,1.4,0.9c0.2,0.5-0.2,1.1-0.3,1.6c0.4-0.2,0.8-0.2,1.2-0.1c0.4-0.5,0.9-1,1.6-0.9
		c0.8,0.1,1.5,0.5,2,1.1c0.3,0.5,0.1,1.1-0.3,1.5c-0.4,0.5-1,0.9-1.7,0.9c0.4-0.4,1.1-0.6,1.1-1.2c-0.2-0.7-0.9-1.1-1.5-1.3
		c-0.2-0.1-0.5-0.2-0.6,0.1c-0.1,0.4-0.2,0.9-0.3,1.3c-0.4,0.2-0.7,0.3-1.1,0.5c0-0.3,0.2-0.8-0.2-1c-0.4-0.4-1,0-1.4,0.2
		c0.1-0.6,0.6-1.1,0.5-1.7c-0.4-0.4-0.8-0.6-1.2-0.9c-0.4-0.1-0.8,0.1-1.2-0.2c0.2-0.1,0.5-0.2,0.7-0.3c-0.3-0.3-0.6-0.7-1-0.8
		c-0.3,0.1-0.6,0.2-1,0.2c0.1-0.2,0.3-0.4,0.6-0.5c-0.2-0.2-0.4-0.7-0.8-0.4c-0.3,0.2-0.7,0.1-1,0.1c0.2-0.2,0.4-0.4,0.5-0.6
		c0-0.3-0.3-0.5-0.5-0.7c-0.6-0.5-1.1-1.3-2-1.4c0.3,0.6,0.7,1,1.3,1.3c-0.4,0.3-0.8,0.6-1.2,0.5c-0.5-0.1-0.8-0.6-0.9-1.1
		c-0.3-0.7-0.7-1.2-1.3-1.7c0.3-0.1,0.6-0.2,0.9-0.3c0.3,0.3,0.6,0.6,1,0.7c-0.6-0.7-1.3-1.3-1.9-2c-0.4,0.6-1,1.2-1,1.9
		c-0.3,0.2-0.7,0.2-1.1,0.3c0.3-0.5,0.1-1-0.1-1.5C21.2,130.9,21.5,130.8,21.8,130.8 M27.5,134C27.2,134.5,28,134,27.5,134z"/>
	<path class="st0" d="M33.1,136c0.3,0,0.6-0.1,0.8-0.1c0.2,0.2,0.3,0.5,0.4,0.8c0.2,0,0.4,0,0.6-0.1c0.2,0.3,0.3,0.6,0.4,0.9
		c-0.3,0-0.6,0.1-0.9,0.1c-0.1-0.3-0.2-0.5-0.3-0.8c-0.2,0-0.4,0-0.6,0.1C33.4,136.6,33.2,136.3,33.1,136z"/>
	<path class="st0" d="M120.5,138.3c0.8,0.8,1.5,1.5,2.2,2.3c0.2,0.4,0.1,1,0.2,1.4c-0.8-0.7-1.6-1.5-2.2-2.4
		C120.4,139.3,120.4,138.8,120.5,138.3z"/>
	<path class="st0" d="M33.4,141.8c0.3,0,0.6-0.1,1-0.1c0.2,0.3,0.3,0.6,0.4,0.9c-0.3,0-0.7,0.1-1,0.1
		C33.7,142.5,33.5,142.2,33.4,141.8z"/>
</g>
<g id="_x23_f5ff12ff">
	<path class="st1" d="M32.9,39.1c-0.5-0.5-0.4-1.2,0-1.7c0.1,0.2,0.3,0.5,0.4,0.7C33.4,38.5,33.1,38.8,32.9,39.1z"/>
	<path class="st1" d="M122.3,37.5c0.1,0.2,0.3,0.5,0.4,0.8c0,0.3-0.2,0.6-0.3,0.9C121.8,38.7,122,37.9,122.3,37.5z"/>
	<path class="st2" d="M28.8,42.9c1.2-1.3,2.7-2.3,4.2-3.2c1.5,0.8,2.9,1.7,4,2.9c0.6,0.7,1.2,1.5,1.2,2.5c0,0.9-0.5,1.7-1,2.4
		c-2.8-0.3-5.6-0.3-8.3,0.1c-0.6-0.7-1.1-1.5-1.1-2.4C27.7,44.3,28.2,43.5,28.8,42.9z"/>
	<path class="st2" d="M119.2,41.9c1-0.8,2-1.6,3.1-2.2c1.8,1,3.7,2.2,4.8,4c0.7,1.2,0.3,2.8-0.7,3.7c-2.7-0.3-5.5-0.3-8.3,0.1
		c-0.8-0.8-1.4-2-1-3.2C117.6,43.4,118.4,42.6,119.2,41.9z"/>
	<path class="st2" d="M29,48c2.6-0.3,5.3-0.3,7.9,0c0,3.5,0,7,0,10.4c-2.6-0.2-5.3-0.2-7.9,0.1C29,55,29,51.5,29,48z"/>
	<path class="st2" d="M118.4,48c2.6-0.3,5.3-0.3,7.9,0c0,3.5,0,7,0,10.4c-2.6-0.2-5.3-0.2-7.9,0.1C118.4,55,118.4,51.5,118.4,48z"/>
	<path class="st2" d="M29.1,59c2.1-0.2,4.3-0.3,6.5-0.2c2.1,0,4.2,0.5,6.3,0.9c1.9,0.4,3.8,0.9,5.7,1.5c-1.2,1.1-2.4,2.1-3.5,3.2
		c-3.6-0.7-7.2-1.1-10.8-1.1c-3.9,0-7.7,0.4-11.6,1.1c-1.1-1.1-2.3-2.2-3.5-3.2C21.7,59.9,25.4,59.4,29.1,59z"/>
	<path class="st2" d="M116.5,59.2c2.9-0.3,5.9-0.6,8.8-0.3c1.8,0.1,3.6,0.4,5.4,0.8c2.1,0.4,4.1,1,6.2,1.6c-1.2,1.1-2.4,2.2-3.5,3.3
		c-2.4-0.5-4.8-0.8-7.3-1c-5-0.4-10.1,0.1-15,0.9c-1.1-1.1-2.3-2.2-3.5-3.2C110.4,60.2,113.5,59.6,116.5,59.2z"/>
	<path class="st2" d="M21.9,64.9c3.6-0.6,7.2-0.9,10.8-1c3.8,0,7.5,0.4,11.2,1c0.1,3.3,0.1,6.5,0.1,9.8c-3.6-0.6-7.3-1-11-1.1
		c-3.7,0-7.4,0.4-11.1,1.2C21.8,71.5,21.9,68.2,21.9,64.9 M31.7,66.1c-0.5,0.3-0.9,0.8-1,1.4c0,1.5,0,3,0,4.5c1.4-0.2,2.9-0.2,4.3,0
		c0-1.3,0-2.6,0-3.9c0-0.6-0.3-1.2-0.7-1.6C33.6,65.6,32.4,65.5,31.7,66.1 M24.7,68.6c0,1.4,0,2.8,0,4.3c1.3-0.2,2.6-0.3,3.9-0.5
		c0-1.4-0.1-2.7-0.1-4.1c0-1-0.9-2-1.9-1.9C25.5,66.4,24.7,67.5,24.7,68.6 M37.9,66.8c-0.4,0.4-0.7,0.9-0.7,1.5
		c0,1.4-0.1,2.7-0.1,4.1c1.3,0.2,2.6,0.3,3.9,0.5c0-1.4,0-2.7,0-4.1c0-0.7-0.3-1.4-0.8-1.9C39.7,66.2,38.6,66.2,37.9,66.8z"/>
	<path class="st2" d="M111.2,64.9c5.4-0.9,10.9-1.3,16.4-0.7c1.9,0.2,3.7,0.4,5.6,0.8c0,3.3,0.1,6.5,0.1,9.8
		c-4.8-0.8-9.8-1.3-14.7-0.9c-2.5,0.2-5,0.5-7.5,1C111.2,71.5,111.2,68.2,111.2,64.9 M120,67.5c0,1.5,0,2.9,0,4.4
		c1.4-0.2,2.9-0.2,4.3,0c0-1.4,0-2.8,0-4.3c-0.2-1-1-1.9-2.1-1.9C121.2,65.7,120.2,66.5,120,67.5 M114.1,68.6c0,1.4,0,2.9,0,4.3
		c1.3-0.2,2.6-0.3,3.9-0.5c0-1.4-0.1-2.7-0.1-4.1c0-1-0.8-2-1.8-1.9C114.9,66.3,114.1,67.5,114.1,68.6 M126.6,68.3
		c0,1.4-0.1,2.7-0.1,4.1c1.3,0.2,2.6,0.3,3.9,0.5c0-1.4,0-2.8,0-4.3c0-1-0.8-2.2-1.9-2.2C127.5,66.2,126.7,67.3,126.6,68.3z"/>
	<path class="st2" d="M22.2,75.3c3.3-0.6,6.5-1,9.8-1.1c3.9-0.1,7.8,0.3,11.6,1c-1,0.9-2.1,1.8-3.1,2.7c-5.2,0-10.3,0-15.4-0.1
		C24.1,77,23.1,76.1,22.2,75.3z"/>
	<path class="st2" d="M111.6,75.3c5.2-0.9,10.5-1.4,15.8-0.8c1.9,0.2,3.8,0.4,5.7,0.8c-1,0.9-2.1,1.8-3.1,2.7c-5,0-10.1,0-15.1-0.1
		c-0.2,0-0.4,0-0.6-0.2C113.4,76.9,112.4,76.1,111.6,75.3z"/>
</g>
<g id="_x23_ff0207ff">
	<path class="st3" d="M79.7,47.6c0.2,0.2,0.6,0.5,0.3,0.9c-0.2,0.3-0.4,0-0.5-0.2C79.5,48.1,79.6,47.9,79.7,47.6z"/>
	<path class="st3" d="M24.8,78.2h0.1c1.4,0.1,2.9,0,4.3,0.1c0,4.2,0,8.4,0,12.6c1.2,1.2,2.4,2.4,3.6,3.6c1.2-1.2,2.4-2.4,3.6-3.7
		c0-4.2,0-8.4,0-12.6c1.4,0,2.9,0,4.4,0c0,4.4,0,8.8,0,13.2c0,0.2,0.1,0.5-0.1,0.6c-1.7,1.7-3.4,3.5-5.1,5.2
		c1.7,1.8,3.5,3.5,5.2,5.3c0,6.1,0,12.3,0,18.4c4,0,8.1,0,12.1,0c0-2.6,0-5.1,0-7.7c1.4,0,2.9,0,4.3,0c0,2.6,0,5.1,0,7.7
		c0.9,0,1.9,0,2.8,0c0-2.6,0-5.1,0-7.7c1.5,0,3,0,4.4,0c0,2.6,0,5.1,0,7.7c1.2,0,2.4,0,3.5,0c0-2.6,0-5.1,0-7.7c1.5,0,3,0,4.4,0
		c0,2.6,0,5.2,0,7.7c3.1,0,6.3,0,9.4,0c0-2.6,0-5.1,0-7.7c1.4,0,2.9,0,4.3,0c0,2.5,0,5.1,0,7.6c1,0,2.1,0,3.1,0c0-2.5,0-5.1,0-7.6
		c1.4,0,2.9,0,4.3,0c0,2.6,0,5.2,0,7.7c1.1,0,2.2,0,3.2,0c0-2.6,0-5.2,0-7.7c1.5,0,3,0,4.5,0c0,2.5,0,5.1,0,7.6c8.1,0,16.3,0,24.4,0
		c0-1.1,0-2.2,0-3.4c-3.8,0-7.7,0-11.5,0c0-5,0-9.9,0-14.9c1.7-1.7,3.4-3.4,5.1-5.1v-0.1c-1.7-1.7-3.4-3.4-5.1-5.1
		c-0.2-0.2-0.1-0.4-0.1-0.6c0-4.5,0-9.1,0-13.6c1.5,0,2.9,0,4.4,0c0,4.1,0,8.1,0,12.2c0,0.2,0,0.4,0.2,0.6c1.1,1.1,2.3,2.3,3.4,3.4
		c1.2-1.2,2.3-2.3,3.5-3.5c0-4.2,0-8.4,0-12.6c1,0,2.1,0,3.1,0c0.5,0,0.9,0,1.4-0.1c0,4.6,0,9.2,0.1,13.8c-1.7,1.8-3.5,3.5-5.2,5.3
		c1.7,1.7,3.5,3.5,5.2,5.3c0,2.5,0,4.9,0,7.4c-1.4,0-2.9,0-4.4,0c0-2.1,0-4.1,0-6.1c-1.2-1.3-2.4-2.5-3.6-3.7
		c-1.2,1.2-2.5,2.3-3.7,3.5c0,3.2,0,6.4,0,9.6c3.9,0,7.8,0,11.7,0c0,4.1,0,8.1,0,12.2c-35.1,0-70.3,0-105.4,0c0-4,0-8,0-12
		c3.9,0,7.7,0,11.6,0c0-3.2,0-6.4,0-9.5c0-0.2-0.2-0.3-0.3-0.5c-1.1-1.1-2.2-2.2-3.3-3.3c-1.2,1.2-2.5,2.5-3.7,3.7
		c0,2.1,0,4.1,0.1,6.2c-1.4,0-2.9,0.1-4.3,0.1c0-2.5,0-5,0-7.5c1.7-1.8,3.5-3.5,5.2-5.3c-1.7-1.7-3.5-3.4-5.2-5.1
		C24.7,87.5,24.7,82.9,24.8,78.2 M38.1,105.4c-1,0.3-1.3,1.7-0.6,2.4c0.7,0.8,2.2,0.4,2.4-0.6C40.3,106.1,39.1,105,38.1,105.4
		 M38.1,109.1c-1,0.3-1.3,1.7-0.5,2.4c0.7,0.8,2.2,0.4,2.4-0.6C40.3,109.8,39.1,108.6,38.1,109.1 M60.8,113.9c0,0.8,0.8,1.6,1.6,1.6
		c0.9,0,1.6-0.7,1.6-1.6C62.9,113.9,61.8,113.9,60.8,113.9 M29.1,117.7c0,1.1,0,2.3,0,3.4c2.4,0,4.8,0,7.2,0c0-1.1,0-2.3,0-3.4
		C34,117.7,31.5,117.7,29.1,117.7 M50.9,125.1c1.1,0,2.2,0,3.2,0c0-0.8-0.7-1.6-1.6-1.6C51.7,123.5,51,124.2,50.9,125.1 M55.3,125.1
		c1.1,0,2.2,0,3.2,0c-0.1-0.8-0.7-1.5-1.5-1.6C56.1,123.4,55.4,124.2,55.3,125.1 M66.4,125.1c1.1,0,2.2,0,3.2,0
		c-0.1-0.8-0.7-1.5-1.5-1.6C67.2,123.4,66.5,124.2,66.4,125.1 M70.8,125.1c1.1,0,2.2,0,3.2,0c0-0.8-0.8-1.6-1.7-1.6
		C71.6,123.5,70.9,124.3,70.8,125.1z"/>
</g>
<g id="_x23_f8ff54ff">
	<path class="st4" d="M68.5,105"/>
</g>
<g id="_x23_272929ff">
	<path class="st5" d="M27.5,134C28,134,27.2,134.5,27.5,134z"/>
</g>
<path class="st6" d="M76.5,62.1c-3.2,1.7-6.8,3.8-9.6,5.8c-5.4,3.8-10.2,7.9-13.5,11.6c-1.4,1.6-2.6,3.3-3.6,4.9
	c-0.7,1.2-1.5,2.9-2,4.5c-0.1,0.2-0.1,0.3-0.1,0.4c0,0-0.1,0.2-0.1,0.3c0,0.1-0.1,0.4-0.2,0.7c-0.7,2.2-1,4.1-1.1,6.1
	c0,0.8,0,2.7,0,3.4c0.1,1.1,0.3,2.2,0.5,3.1c0.1,0.6,0.3,1.2,0.4,1.2v0.1v0.1c0,0,0,0.1,0.1,0.2s0.1,0.4,0.2,0.6
	c0.8,2,2,3.9,3.5,5.7c0.4,0.4,1.4,1.4,1.8,1.8l0.3,0.2h5c6.5,0,31.5,0,38,0h5.1l0.3-0.3c0.2-0.2,0.6-0.5,0.9-0.9
	c2.9-2.9,4.7-5.9,5.6-9.3c0.2-1,0.4-1.9,0.5-3c0.1-0.8,0.1-2.8,0-3.6c-0.2-1.8-0.5-3.4-1-5.1c-0.1-0.3-0.2-0.6-0.2-0.6v-0.1
	c0,0,0,0,0-0.1s0-0.1,0-0.1s-0.1-0.2-0.1-0.3c0-0.2-0.1-0.4-0.1-0.4v-0.1c0-0.1-0.8-2.1-1.2-2.9c-1-2.2-2.7-4.6-5-7.2
	c-0.7-0.8-2.6-2.7-3.5-3.5c-2.8-2.6-5.9-5-9.3-7.4c-2.1-1.4-4.8-3.1-7.3-4.5c-0.3-0.2-0.4-0.2-0.5-0.2c-0.2-0.1-0.1-0.1-0.4-0.3
	c-0.1-0.1-0.4-0.2-0.5-0.3c-0.2-0.1-1.9-1-1.9-1C77.3,61.6,77,61.8,76.5,62.1z"/>
<path class="st3" d="M81.3,50.3c1,0.4,1.9,0.7,3,0.8c1.6,0.2,3.3,0.1,4.9,0.5c0.5,0.1,1.1,0.3,1.4,0.8c0.4,0.7,0.7,1.5,1.2,2.2
	c0.7,0.8,1.7,1.1,2.7,1.3c1.2,0.3,2.5,0.3,3.7,0.6c0.5,0.1,0.7,0.6,0.8,1s0.2,0.9,0,1.4c-0.7,1.8-1.4,3.6-2.1,5.4
	c-0.5,1.4-1,2.8-1,4.3c-0.6-0.9-1.1-1.7-2-2.3c-1-0.6-2.3-0.3-3.4-1c-0.8-0.4-0.7-1.6-1.5-2c-1.7-0.8-3.7-0.4-5.5-0.6
	c-1.2-0.2-2.5-0.8-3.3-1.7c1.8-1.4,2.9-3.6,2.9-5.8C83.2,53.2,82.4,51.6,81.3,50.3z"/>
<path class="st0" d="M108.1,132.2c0.7-0.3,1.4-0.7,2.1-1c2.7,4.4,5.3,8.8,7.8,13.3c-0.6,0.8-1.7,0.9-2.5,1.4
	C112.9,141.4,110.5,136.8,108.1,132.2z"/>
<g>
	<path class="st0" d="M104.1,134c0.3-0.1,0.6-0.2,0.8-0.3c0.3-0.1,0.7,0,0.9,0.3c2,4,3.9,8.1,5.9,12.2c0,0,0,0,0,0.1
		c0.1,0.4,0.6,1,0.2,1.4c-12.3,5.3-25.9,7.5-39.3,6.4c-0.4,0-0.6-0.3-0.6-0.7c0-0.1,0-0.2,0-0.4c0-0.4,0.3-0.7,0.7-0.7
		c1,0,2,0.1,3,0.1c0.4,0,0.7-0.3,0.7-0.7c0-1.4,0.1-2.7,0.1-4.1c0-0.3-0.2-0.5-0.4-0.6c-0.5-0.2-1.1-0.2-1.7-0.2
		c-0.4,0-0.7-0.3-0.7-0.7l0,0c0-0.4,0.3-0.6,0.7-0.7c1.6,0,3.4-0.3,4.6,0.7c0.1,0.1,0.2,0.2,0.2,0.4c0.4,1.8,0.1,3.6,0.2,5.4
		c0,0.4,0.3,0.7,0.7,0.7c1.1,0,2.3,0,3.4-0.1c0.5,0,0.8-0.6,0.6-1c-0.7-1.4-0.6-3.2-0.5-4.8c0.1-0.9,1-1.4,1.9-1.4
		c1.8-0.2,3.6-0.5,5.4-0.6c0.4,0,0.7,0.2,0.8,0.6c0.3,1.9,0.6,3.7,1,5.6c0.1,0.4,0.4,0.6,0.8,0.5c0.7-0.1,1.4-0.3,2.1-0.4
		c0.4-0.1,0.6-0.4,0.5-0.8c-0.3-1.9-1-3.7-1.2-5.7c0-0.4,0.2-0.7,0.6-0.8c1.8-0.3,3.6-1,5.4-1.4c0.7-0.2,1.6-0.2,2,0.6
		c0.7,1.6,1.2,3.3,1.9,4.9c0.1,0.3,0.5,0.5,0.8,0.4c1-0.2,1.9-0.6,2.8-1c0.4-0.1,0.5-0.5,0.4-0.9c-1.5-3.9-3.3-7.6-4.8-11.4
		C103.6,134.6,103.8,134.2,104.1,134z M97.8,145.5c0.2,1.4,0.6,2.7,1.1,3.9c0.1,0.3,0.4,0.5,0.7,0.4c0.6,0,1.2-0.2,1.9-0.3
		c0.4-0.1,0.6-0.5,0.5-0.9c-0.4-1.2-0.8-2.5-1.2-3.7c0,0,0-0.1-0.1-0.1c-0.5-0.8-1.5-0.3-2.3-0.1C98,144.8,97.8,145.1,97.8,145.5z
		 M86.3,147.6c-0.2,1,0,2,0.1,2.9c0,0.1,0,0.1,0.1,0.2c0.2,1.1,1.7,1.7,2.7,1.3c0.4-0.2,0.7-0.4,0.7-0.8c-0.1-1.3-0.3-2.7-0.6-3.9
		c-0.1-0.3-0.4-0.6-0.7-0.6c-0.6,0-1.3,0-1.9,0.4C86.4,147.2,86.3,147.3,86.3,147.6z"/>
</g>
<path class="st0" d="M47.6,134.2c1,0.3,1.9,0.7,2.8,1.3c-0.4,0.5-0.4,1.4-1,1.6c-0.9-0.4-1.7-0.8-2.6-1.2
	C47,135.3,47.3,134.7,47.6,134.2z"/>
<path class="st0" d="M53.8,139.1c-0.9-0.4-1.8-0.7-2.7-1c-0.1-0.7,0.3-1.4,0.7-1.9c0.9,0.4,1.8,0.7,2.6,1.2
	C54.3,137.9,54.1,138.5,53.8,139.1"/>
<g>
	<path class="st0" d="M44.2,139c0.6-1,2.1-1.6,3.1-1c1.7,0.8,3.5,1.5,5.3,2.4c-0.9,2.2-2,4.3-2.7,6.5c1.5,0.5,3,1.2,4.5,1.6l0.4-0.2
		c0.9-2,1.4-4.1,2.3-6.1c0.8-0.3,1.9,0.1,2.4,0.7c-0.6,2.2-1.5,4.3-1.9,6.6c1,0.3,2,0.5,2.9,0.8c0.6-2.2,1.3-4.4,1.8-6.7
		c0.8-0.1,1.6,0.2,2.5,0.3c-0.1,2.4-1.2,4.7-1.2,7.1c0.9,0,2,0.6,2.7,0.1c0.4-2.1,0.8-4.3,1.2-6.5c0.9,0,1.7,0.1,2.6,0.2
		c-0.4,2.9-0.8,5.9-1.2,8.8c-9.7-1.2-19.2-4.3-27.9-9C41.9,142.7,43,140.8,44.2,139z M46.6,140.4c-0.9,1.3-1.6,2.7-2.2,4.1
		c0.8,0.4,1.7,0.8,2.6,1.2c1-1.5,1.7-3.2,2.4-4.8C48.5,140.5,47.5,139.9,46.6,140.4z"/>
</g>
<path class="st0" d="M87.8,141.2c0.9-0.1,1.9-0.2,2.8-0.4c0.1,0.6,0.3,1.2,0.4,1.9c-1,0.3-2,0.5-3.1,0.5
	C87.9,142.5,87.9,141.9,87.8,141.2z"/>
<path class="st0" d="M83.3,141.7c1,0,2-0.1,3-0.2c0,0.7,0,1.3,0,2c-1,0.1-2,0.1-3,0.1C83.3,143,83.3,142.4,83.3,141.7z"/>
<g>
	<path class="st7" d="M74.1,68.2c1.4-0.8,2.6-2.3,2.8-3.9c0.9,0.1,1.8,0.3,2.4,1c0.5,0.5,0.6,1.3,0.7,1.9c0.3-0.1,0.7-0.3,1.1-0.2
		c1,0.1,1.7,1.3,1.3,2.2c-0.1,0.3-0.4,0.5-0.6,0.8c1.4,1.3,2.9,2.7,3.5,4.6c0.4-0.5,0.9-1,1.7-1s1.5,0.6,2.2,0.9
		c0.5,0.2,0.9-0.1,1.4-0.2c0.2,0.1,0.1,0.3,0.2,0.4c0.1,0.7,0,1.4-0.2,2c-0.6,1-1.8,1.3-2.8,1.2c0,0.8-0.2,1.6-0.8,2.1
		s-1.4,0.6-2.1,0.5c-0.1,0.5-0.3,1-0.6,1.5c0.7,0.8,1.7,1.3,2.6,1.8c0.9,0.5,1.5,1.4,1.8,2.3c0.1,0.6,0,1.2-0.4,1.7
		c-0.5,0.5-1.4,0.5-2,0.2c-0.8-0.5-0.8-1.9,0.1-2.4c0.2-0.1,0.5-0.1,0.8-0.2c-0.2-0.4-0.5-0.9-1-1.2c-1-0.5-2.2-0.6-3.4-0.7
		C81.3,85,79,85.3,77,84.8c-0.2,0.4-0.3,0.9-0.7,1.2c-0.7,0.6-1.8,0.5-2.4-0.2c-0.4-0.4-0.4-0.9-0.5-1.4c0.2-0.4,0.4-0.8,0.7-1.2
		c-0.6-0.8-1.2-1.7-1.6-2.7c-0.4-1.2-0.7-2.5-1.1-3.8c-0.2-0.6-0.3-1.3-0.7-1.9c-0.2-0.4-0.6-0.6-1-0.9c0.8-0.5,1.7-0.9,2.6-0.8
		c0.8,0.2,1.4,0.9,1.8,1.6c0.5-0.4,1.1-0.8,1.7-1.1c-0.3-0.6-0.5-1.2-0.1-1.8c0.5-0.8,1.8-0.9,2.4-0.2c0.4,0.4,0.4,1,0.3,1.6
		c1.6,0.2,2.8,1.4,3.4,2.8c0.4,0.9,0.4,2,0.6,3c0.1,0.7,0.3,1.4,0.5,2.1c1-1.7,1.6-3.7,1.1-5.7c-0.5-1.7-1.6-3.1-3-4.1
		c-0.8-0.6-1.7-1-2.6-1.1c-1.5-0.3-3.1-0.2-4.6,0c-1.6,0.3-3.1,1-4.4,1.9c-1.1,0.7-1.9,1.6-2.6,2.7c0.4,0.2,0.8,0.3,1,0.8
		c0.2,0.4,0.1,0.8,0,1.2v0.1c0.5,0.2,1.1,0.4,1.4,0.8c0.4,0.6,0.6,1.4,0.7,2.2c-0.6-0.1-1.3,0-1.8,0.5c-1,1-1.2,2.5-2.1,3.6
		c-0.2,0.3-0.5,0.4-0.8,0.6c-0.6,0.2-1.4,0.2-2,0c0.3,1.2,0.6,2.5,1.4,3.5c0.6,0.8,1.4,1.4,2.3,1.9c0.2-0.3,0.4-0.5,0.6-0.8
		c0,0.7,0,1.3,0,2c0,1.1,0,2.1,0,3.2c0,1.9,0,3.8,0,5.7c0,1.2,0,2.4,0,3.5c0,0.6,0.2,1.3,0.8,1.5c0.4,0.1,0.7,0.4,0.9,0.8
		c0.2-0.4,0.6-0.7,1-0.8c0.6-0.2,0.8-0.9,0.8-1.4c0-1.2,0-2.4,0-3.6c0-1.1,0-2.3,0-3.4c-0.2-0.8-1-1.3-1.8-1.4
		c0.2-0.3,0.3-0.5,0.5-0.8c0.7-0.7,1.6-1.2,2.6-1.2c0-0.6,0.1-1.3,0.6-1.8c0.5-0.4,1-0.8,1.2-1.4c0,0.4,0,0.8,0,1.2
		c0,2.1,0,4.1,0,6.1c0,1.4,0,2.8,0,4.2c1.7,0,3.4,0,5.2,0c0.4-0.8,1-1.5,1.7-2c-0.4-0.4-0.8-0.9-1.3-1.1c-0.8-0.4-1.6-0.4-2.5-0.4
		c0-0.2,0-0.4,0-0.6c0-0.5,0.1-1.1,0.5-1.5c0.4-0.5,1-0.7,1.6-0.9c-0.3-0.8-0.5-1.6-0.1-2.4c0.3-0.6,1-0.8,1.7-1.2
		c0.9-0.5,1.8-1.1,2.5-1.9c0.7,0.9,1.7,1.5,2.7,2c0.6,0.3,1.2,0.5,1.5,1.1c0.4,0.7,0.1,1.6-0.2,2.3c0.6,0.2,1.2,0.4,1.6,0.9
		c0.3,0.4,0.4,0.9,0.5,1.3c0,0.3,0,0.5,0,0.8c-0.8,0-1.6,0-2.4,0.4c-0.6,0.2-1,0.7-1.4,1.2c0.7,0.6,1.2,1.2,1.7,2c1.6,0,3.3,0,4.9,0
		c0-1.4,0-2.9,0-4.3c0-2,0-3.9,0-5.9c0-1.7,0-3.4,0-5.1c0-1.1,0-2.3,0-3.4c0-0.8-0.2-1.7-0.7-2.3c-0.3-0.4-0.8-0.6-1.2-0.8
		c0.4-0.6,0.8-1.3,1.5-1.6c0.5-0.3,1-0.3,1.6-0.4c0-0.3,0-0.6,0-0.9c0.1-0.4,0.3-0.7,0.6-0.9c0.5-0.5,0.9-1,1.4-1.5
		c0,0.8,0,1.7,0,2.5c0,1.5,0,3.1,0,4.6c0,1.3,0,2.6,0,3.9c0,3,0,6,0,9c0,1,0,1.9,0,2.9c0,1.8,0,3.7,0,5.5c0,0.8-0.1,1.7,0.5,2.3
		c0.5,0.3,1,0.4,1.3,1c0.2-0.6,0.8-0.7,1.3-1c0.6-0.6,0.5-1.5,0.5-2.2c0-1.8,0-3.6,0-5.4c0-1,0-2,0-2.9c0-3.1,0-6.1,0-9.2
		c0-1.3,0-2.6,0-3.9c0-0.6,0-1.2,0-1.9c0.5,0.8,1.2,1.3,1.8,2.1c0.1,0.4,0.1,0.9,0.1,1.3c1.3-0.1,2.5,0.8,3,2
		c-0.2,0.1-0.4,0.2-0.6,0.3c-1.1,0.6-1.4,2-1.3,3.2c1.9,1.5,3.4,3.7,3.7,6.2c0.3,1.9,0.1,3.8-0.4,5.6c-0.4,1.2-0.9,2.3-1.7,3.3
		c-0.1,0.2-0.5,0.2-0.6,0c0-0.4,0.2-0.8,0.4-1.2c0.4-0.7,0.6-1.5,0.8-2.3c-0.3,0-0.7,0-1-0.2c-0.5-0.5-0.5-1.2-0.4-1.9
		c0.2-1.9,0.9-3.7,0.8-5.6c-0.1-1.1-0.6-2.1-1.4-2.9c0,0-0.1-0.1-0.1-0.2c0,5,0,10.1,0,15.1c0,0.4-0.1,0.8-0.2,1.1
		c-0.2,1-0.6,1.9-1.3,2.6c-0.5,0.4-1.2,0.6-1.9,0.7c-0.8,0.2-1.2,0.9-1.5,1.6c-0.3-0.8-0.8-1.5-1.7-1.7c-0.8-0.1-1.6-0.4-2-1.1
		c-0.7-0.8-0.9-2-1.1-3c-0.3-0.1-0.3,0.3-0.4,0.5c-0.7,2-2.1,3.7-4,4.8c-2.1,1.2-4.7,1.5-7,0.8c-2.9-0.8-5.3-3.3-6-6.2
		c-0.2,0-0.3,0-0.5,0c-0.2,1.3-0.5,2.8-1.7,3.7c-0.7,0.5-1.7,0.4-2.3,0.9c-0.4,0.3-0.6,0.8-0.8,1.3c-0.3-0.8-0.8-1.5-1.7-1.7
		c-0.7-0.1-1.5-0.4-2-0.9c-0.7-0.9-1-2.1-1.2-3.2c-1,0-2,0-3,0c-0.4,1.4-1.3,2.6-2.5,3.3c-1.2,0.8-2.8,1-4.2,0.8
		c-1.7-0.3-3.2-1.5-4-3c-0.2-0.3-0.3-0.7-0.4-1c-0.1,0-0.3,0-0.4,0c0.5-2.3-0.2-4.7,0.3-7c0.4-1.2,1.2-2.2,2.2-2.9
		c1.2-1,2.7-1.5,3.7-2.7c0.7-0.9,0.4-2.1,0.5-3.1c0-1.2,0-2.4,0-3.6c0-1,0.1-2-0.4-2.9c-0.3-0.5-0.7-0.9-1.3-1.1
		c-0.1,0-0.2-0.1-0.2-0.1c0.4-0.6,0.8-1.3,1.5-1.7c0.5-0.3,1-0.3,1.5-0.3c0-0.4-0.1-0.9,0.1-1.3s0.5-0.6,0.8-0.9
		c0.4-0.4,0.7-0.8,1.1-1.2c0,0.4,0,0.7,0,1.1c0,1.5,0,3,0,4.6c0,1.3,0,2.6,0,3.8c0,3.1,0,6.1,0,9.2c0,2.4,0,4.7,0,7.1
		c0.6,0,1.2,0,1.8,0c0.1-0.6-0.2-1.3,0.3-1.7c0.1,0.6,0.1,1.2,0,1.7c0.9,0,1.9,0,2.8,0c0-1.3,0-2.5,0-3.8c0-0.8-0.2-1.6-0.7-2.2
		c-0.3-0.4-0.8-0.6-1.2-0.8c0-0.1,0.1-0.2,0.2-0.3c0.6-1,1.7-1.8,2.9-1.7c0-0.5,0-1.1,0.2-1.6c-1.8-1.4-3.1-3.5-3.7-5.8
		c-0.3-1.3-0.3-2.7-0.1-4.1c0.2-1.4,0.7-2.8,1.4-4.1c0.7-1.5,1.7-2.9,2.9-4C68.5,70.9,71.5,69.7,74.1,68.2z M76.2,66.8
		c-1.1,1.6-3,2.3-4.6,3.2c-2.5,1.3-5.3,2.7-6.9,5.2s-2.7,5.4-2.6,8.4c0.1,2.7,1.6,5.4,3.7,7.1c0.2-0.2,0.4-0.3,0.6-0.5
		c-0.4-0.3-0.9-0.6-1.2-0.9c-1.6-1.4-2.2-3.6-2.5-5.7c-0.1-0.9,0.2-2.1,1.1-2.3c0.9-0.3,1.8,0.8,1.3,1.6c-0.2,0.5-1.1,0.8-1.3,0.2
		c0.2,0,0.5,0,0.7-0.1c0.4-0.2,0.5-0.8,0.1-1.1c-0.4-0.4-1-0.1-1.3,0.3c-0.3,0.6-0.3,1.3-0.2,2c0.8,0.5,2,0.4,2.6-0.4
		c0.7-0.9,1-2.1,1.6-3c0.5-0.7,1.3-1.2,2.1-1.2c-0.2-0.7-0.3-1.5-1-1.9c-0.4-0.3-0.9-0.3-1.4-0.4c0.3-0.3,0.6-0.6,0.5-1.1
		c0-0.6-0.8-0.8-1.2-0.9c0.9-1.9,2.6-3.2,4.4-4.1c1.6-0.8,3.4-1.2,5.2-1.3c1.9,0,3.9,0.2,5.4,1.3c1.5,1.1,2.7,2.7,3.1,4.5
		c0.4,2.1-0.1,4.4-1.4,6.1c-0.1,0-0.2,0-0.2,0.1c-0.6-1.3-0.7-2.8-0.8-4.2c-0.1-1.3-0.9-2.4-1.9-3.3c-0.6-0.5-1.3-0.6-2.1-0.7
		c0.2-0.5,0.4-1.2-0.1-1.6c-0.6-0.7-1.8-0.4-2,0.5c-0.2,0.6,0.2,1,0.5,1.4c-0.9,0.3-1.7,0.8-2.3,1.5c-0.5-0.6-0.8-1.4-1.6-1.7
		c-0.7-0.2-1.5,0.1-2.1,0.4c0.6,0.5,1,1.2,1.2,2c0.4,1.4,0.7,2.9,1.2,4.3c0.3,1,0.9,1.9,1.6,2.8c0.1,0,0.4-0.1,0.5-0.2
		c-0.6-0.8-1.1-1.7-1.3-2.6c0.1-1.1,0.1-2.1,0.3-3.2c0.4-0.9,1-1.7,1.7-2.3c1-0.8,2.4-0.8,3.6-0.4c0.8,0.2,1.5,0.8,1.6,1.6
		c0.1,0.8-0.7,1.8-1.6,1.5c-0.6,0-1.1-1-0.5-1.3c0.2,0.3,0.2,0.7,0.5,0.9c0.7,0.2,1.4-0.7,1-1.3c-0.2-0.6-1-0.8-1.5-0.5
		c-0.8,0.3-1.1,1.2-1,2c0,1.1-0.2,2.5-1.3,3.1c0.6,0.3,1.2,0.7,1.9,0.5c1-0.2,1.6-1.1,2-1.9c0.1,0.2,0.2,0.4,0.2,0.6
		c0.1,0.8,0.1,1.7,0.6,2.4c0.2,0.4,0.6,0.8,1,1.1c-1.4,1.2-3.5,1.6-5.3,1.1c0,0.1,0.1,0.4,0.1,0.5c1.9,0.5,4.2,0.2,5.6-1.3
		c1,0,2.1,0.1,3.1,0.5c0.5,0.3,1,0.4,1.3,0.8c0.4,0.5,0.8,1.3,0.4,1.9c-0.4,0-0.1-0.6-0.5-0.6c-1-0.1-1.2,1.6-0.3,1.9
		c0.5,0.2,1.3,0.2,1.6-0.3c0.4-0.7,0.2-1.6-0.3-2.3c-0.5-0.7-1.2-1.2-2-1.5c-0.8-0.4-1.5-0.9-2-1.7c0.4-0.5,0.6-1.2,0.7-1.9
		c0.8,0.2,1.7,0.2,2.3-0.4c0.6-0.5,0.7-1.4,0.6-2.2c0.9,0.1,1.9,0.1,2.5-0.5c0.7-0.5,0.6-1.5,0.6-2.2c-0.4,0.1-0.8,0.2-1.2,0.1
		c-0.7-0.2-1.2-0.9-2-1c-0.6-0.1-1.2,0.3-1.6,0.8c-0.4,0.4,0,1,0.3,1.3c0.4,0.4,1.1,0.1,1.2-0.4c0-0.4-0.7-0.5-0.4-0.9
		c0.4,0,0.8,0.5,0.8,0.9c0,0.8-1,1.3-1.7,0.8c-0.7-0.4-0.7-1.3-0.9-2c-0.6-1.9-2.2-3.3-3.7-4.5c0.3-0.2,0.8-0.4,0.9-0.7
		c0.4-0.8-0.2-1.8-1.1-1.9c-0.5,0-0.8,0.3-1.2,0.5c-0.1-0.7-0.1-1.5-0.6-2.1s-1.3-0.9-2-1C77,65.4,76.7,66.1,76.2,66.8z M74.2,77
		c-0.2,0.7-0.2,1.5-0.3,2.3c-0.3,1.4,0.6,2.6,1.4,3.6c0.7,0.1,1.1,0.8,1.8,0.8c1.5,0.4,3.1,0,4.3-0.8c-0.2-0.4-0.6-0.7-0.8-1.1
		c-0.3-0.6-0.4-1.4-0.5-2.1c-0.7,0.9-1.8,1.6-3,1.2c-0.5-0.2-1.1-0.5-1.4-1c0.5-0.1,0.9-0.3,1.2-0.7c0.4-0.8,0.4-1.7,0.4-2.5
		c0-1,0.8-2,1.9-1.9c-0.7-0.4-1.5-0.4-2.3-0.3C75.6,74.7,74.7,75.9,74.2,77z M103.2,91.1c0.6,2.4-0.7,4.8-0.6,7.2
		c0,0.4,0.2,0.9,0.6,1c0.7,0.1,1.1-1,0.8-1.5c-0.3-0.3-0.6,0.1-0.9,0.2c-0.3-0.1-0.1-0.4,0.1-0.5c0.5-0.4,1.3-0.1,1.4,0.5
		c0.2,0.8-0.5,1.4-0.6,2.1c-0.2,1.1-0.8,2-1.1,3c2.1-2.5,2.6-6,2.1-9.2c-0.3-1.6-1.1-3-2.2-4.2C102.8,90.2,103.1,90.6,103.2,91.1z
		 M81.5,96.1c0.1,0.8,0.8,1.3,1.5,1.6c0.6-0.3,1.4-0.8,1.4-1.6c0.1-1-0.7-1.8-1.4-2.3C82.2,94.4,81.4,95.2,81.5,96.1z M53.6,97.7
		c-0.6,1-0.6,2.3-0.6,3.4c1.1,0,2.2,0,3.3,0c0-1.8,0-3.7,0-5.5C55.3,96,54.2,96.6,53.6,97.7z M80.9,104.4c-1.9,0-3.7,0-5.5,0
		c0.6,1.3,1.6,2.4,2.8,3.2c0-0.6,0.1-1.3,0.7-1.5c1-0.3,2.2,0.1,3.2-0.1c0.5-0.1,1-0.3,1.5-0.6c0.4,0.6,0.8,1.3,0.6,2.1
		c0.4-0.1,1-0.1,1.3,0.2c0.3,0.2,0.3,0.6,0.4,0.9c2-0.8,3.7-2.3,4.7-4.2c-1.8,0-3.7,0-5.5,0c-0.4-0.8-0.8-1.6-1.3-2.3
		c-0.2-0.3-0.5-0.5-0.8-0.6C81.9,102.1,81.2,103.2,80.9,104.4z M50.5,104.3c0.5,1.4,1.5,2.7,2.9,3.3c1.7,0.8,3.8,0.7,5.4-0.4
		c1-0.7,1.8-1.8,2.2-2.9l-0.1,0.1c-0.7,1.3-1.9,2.4-3.4,2.7c0-0.4,0.2-0.9,0-1.3c-0.2-0.5-0.7-0.8-1.2-0.9c-0.5,1.5-2.4,2.1-3.8,1.5
		C51.6,106,51.1,105.2,50.5,104.3C50.6,104.4,50.5,104.4,50.5,104.3z M51,104.4c0.3,0.4,0.6,0.8,0.9,1.2c1.1,1.3,3.7,0.7,4-1
		c1.1,0.1,2.1,1,2,2.1c1-0.5,2-1.3,2.5-2.3C57.3,104.4,54.1,104.4,51,104.4z M74.8,104.2c0.8,3.2,3.6,5.7,6.8,6.2
		c2.3,0.4,4.8-0.2,6.7-1.7c1.4-1.1,2.6-2.7,3-4.5c-0.2,0.1-0.3,0.3-0.4,0.4c-1.1,2-3,3.7-5.3,4.3c-0.1-0.4,0-0.9-0.5-1.1
		c-0.5-0.3-1.1,0-1.6,0.2c0.1-0.4,0.3-0.8,0.3-1.2c0-0.4-0.2-0.8-0.4-1.1c-0.4,0.2-0.7,0.4-1.1,0.4c-1.1,0.2-2.2-0.1-3.3,0.1
		c-0.6,0.1-0.8,1-0.3,1.4c0.4,0.3,1.1,0.4,1.4-0.1c0.3-0.4-0.6-0.6-0.4-1c0.7-0.1,1.1,0.9,0.6,1.4s-1.4,0.4-1.9,0.1
		c-1.3-0.8-2.4-2-3.2-3.3C75.1,104.6,75,104.3,74.8,104.2z"/>
</g>
<path class="st7" d="M52.1,83.5c0.6-0.7,1.8-0.8,2.5-0.2c0.5,0.4,0.7,1.1,0.6,1.8c-0.2,0.7-0.9,1.3-1.7,1.3
	c-0.8,0.1-1.5-0.6-1.8-1.3C51.6,84.5,51.7,83.9,52.1,83.5z"/>
<path class="st7" d="M69,84.8c0-1,0.7-1.9,1.7-1.9c0.8,0,1.5,0.6,1.8,1.3c0,0.5,0,1.1-0.4,1.5c-0.6,0.7-1.7,0.8-2.4,0.3
	C69.4,85.8,69.2,85.3,69,84.8z"/>
<path class="st7" d="M51.7,88.6c0.1-0.8,0.8-1.6,1.7-1.7c0.9-0.1,1.7,0.7,1.9,1.6c0.1,1-0.7,1.9-1.7,1.9
	C52.5,90.5,51.6,89.6,51.7,88.6z"/>
<path class="st7" d="M60.1,108c0.2-0.6,0.8-1.2,1.5-1.3c0.8-0.2,1.6,0.4,1.9,1.1c0.4,1-0.4,2.3-1.5,2.4
	C60.8,110.4,59.8,109.2,60.1,108z"/>
<path class="st8" d="M76.2,66.8c0.5-0.6,0.8-1.4,1-2.1c0.7,0.2,1.5,0.4,2,1c0.4,0.6,0.4,1.4,0.6,2.1c0.4-0.2,0.7-0.5,1.2-0.5
	c0.8,0,1.5,1.1,1.1,1.9c-0.2,0.4-0.6,0.5-0.9,0.7c1.5,1.3,3.1,2.6,3.7,4.5c0.2,0.7,0.2,1.6,0.9,2c0.6,0.4,1.6,0,1.7-0.8
	c0-0.4-0.4-0.9-0.8-0.9c-0.3,0.4,0.4,0.5,0.4,0.9c-0.1,0.5-0.8,0.8-1.2,0.4c-0.3-0.4-0.6-0.9-0.3-1.3c0.3-0.5,0.9-0.9,1.6-0.8
	c0.8,0.1,1.3,0.8,2,1c0.4,0.1,0.8,0,1.2-0.1c0,0.8,0.1,1.7-0.6,2.2c-0.7,0.6-1.7,0.6-2.5,0.5c0.1,0.8,0.1,1.7-0.6,2.2
	c-0.6,0.6-1.5,0.6-2.3,0.4c-0.1,0.7-0.3,1.3-0.7,1.9c0.5,0.7,1.3,1.2,2,1.7c0.8,0.3,1.5,0.7,2,1.5c0.5,0.6,0.8,1.5,0.3,2.3
	c-0.3,0.5-1.1,0.6-1.6,0.3c-0.9-0.3-0.6-2,0.3-1.9c0.4,0,0.1,0.6,0.5,0.6c0.4-0.6,0-1.4-0.4-1.9c-0.3-0.5-0.9-0.6-1.3-0.8
	c-1-0.3-2-0.4-3.1-0.5c-1.4,1.5-3.7,1.8-5.6,1.3c0-0.1-0.1-0.4-0.1-0.5c1.8,0.5,3.9,0.1,5.3-1.1c-0.4-0.4-0.7-0.7-1-1.2
	c-0.4-0.7-0.5-1.6-0.6-2.4c0-0.2-0.1-0.4-0.2-0.6c-0.4,0.8-1,1.7-2,1.9c-0.7,0.2-1.3-0.1-1.9-0.5c1.1-0.6,1.4-1.9,1.3-3.1
	c-0.1-0.8,0.2-1.7,1-2c0.5-0.2,1.3-0.1,1.5,0.5c0.3,0.6-0.3,1.5-1,1.3c-0.3-0.2-0.3-0.6-0.5-0.9c-0.6,0.3-0.1,1.3,0.5,1.3
	c0.9,0.2,1.7-0.7,1.6-1.5s-0.8-1.4-1.6-1.6c-1.2-0.4-2.6-0.4-3.6,0.4c-0.7,0.6-1.3,1.4-1.7,2.3c-0.1,1.1-0.2,2.1-0.3,3.2
	c0.2,1,0.7,1.8,1.3,2.6c-0.1,0-0.4,0.1-0.5,0.2c-0.6-0.8-1.3-1.7-1.6-2.8c-0.5-1.4-0.8-2.9-1.2-4.3c-0.2-0.8-0.5-1.5-1.2-2
	c0.6-0.3,1.4-0.6,2.1-0.4c0.8,0.3,1.1,1.1,1.6,1.7c0.7-0.6,1.4-1.2,2.3-1.5c-0.3-0.4-0.7-0.9-0.5-1.4c0.2-0.9,1.4-1.2,2-0.5
	c0.4,0.4,0.3,1.1,0.1,1.6c0.7,0.1,1.5,0.2,2.1,0.7c1,0.8,1.8,2,1.9,3.3c0.1,1.4,0.3,2.9,0.8,4.2c0.1,0,0.2,0,0.2-0.1
	c1.2-1.7,1.8-4,1.4-6.1c-0.4-1.8-1.7-3.4-3.1-4.5c-1.5-1.2-3.5-1.4-5.4-1.3c-1.8,0-3.6,0.4-5.2,1.3c-1.8,0.9-3.6,2.2-4.4,4.1
	c0.5,0.2,1.2,0.3,1.2,0.9c0.1,0.4-0.2,0.8-0.5,1.1c0.4,0.2,1,0.1,1.4,0.4c0.6,0.4,0.8,1.2,1,1.9c-0.9,0-1.7,0.5-2.1,1.2
	c-0.6,1-0.9,2.1-1.6,3c-0.6,0.7-1.8,0.8-2.6,0.4c-0.1-0.6-0.1-1.4,0.2-2c0.2-0.4,0.9-0.7,1.3-0.3c0.3,0.3,0.2,0.9-0.1,1.1
	c-0.2,0.1-0.5,0.1-0.7,0.1c0.2,0.7,1.1,0.3,1.3-0.2c0.5-0.8-0.4-1.9-1.3-1.6c-1,0.2-1.2,1.4-1.1,2.3c0.2,2.1,0.8,4.3,2.5,5.7
	c0.4,0.4,0.8,0.6,1.2,0.9c-0.2,0.2-0.4,0.3-0.6,0.5c-2.1-1.7-3.5-4.3-3.7-7.1c-0.2-3,0.9-5.9,2.6-8.4c1.6-2.5,4.3-3.8,6.9-5.2
	C73.2,69.1,75.1,68.3,76.2,66.8z"/>
<path class="st8" d="M74.8,104.2c0.2,0.1,0.3,0.3,0.4,0.5c0.7,1.4,1.9,2.5,3.2,3.3c0.6,0.3,1.4,0.4,1.9-0.1s0.1-1.5-0.6-1.4
	c-0.2,0.4,0.7,0.6,0.4,1c-0.3,0.4-1,0.3-1.4,0.1c-0.5-0.3-0.3-1.3,0.3-1.4c1.1-0.2,2.2,0.2,3.3-0.1c0.4-0.1,0.7-0.3,1.1-0.4
	c0.2,0.3,0.4,0.7,0.4,1.1s-0.2,0.8-0.3,1.2c0.5-0.2,1-0.5,1.6-0.2c0.4,0.2,0.4,0.7,0.5,1.1c2.2-0.6,4.1-2.3,5.3-4.3
	c0.1-0.2,0.2-0.3,0.4-0.4c-0.4,1.8-1.6,3.3-3,4.5c-1.9,1.4-4.3,2.1-6.7,1.7C78.3,109.9,75.6,107.4,74.8,104.2z"/>
<path class="st8" d="M50.5,104.3l0.1,0.1c0.5,0.8,1,1.6,1.9,2c1.4,0.6,3.3,0,3.8-1.5c0.5,0.2,1,0.4,1.2,0.9c0.2,0.4,0.1,0.9,0,1.3
	c1.4-0.4,2.6-1.5,3.4-2.7c0,0,0.1,0,0.1-0.1c-0.4,1.2-1.2,2.3-2.2,2.9c-1.6,1.1-3.7,1.2-5.4,0.4C52,107,51,105.8,50.5,104.3z"/>
<path class="st8" d="M103.2,91.1c-0.1-0.5-0.4-1-0.6-1.4c1,1.2,1.9,2.6,2.2,4.2c0.6,3.1,0,6.7-2.1,9.2c0.4-1,0.9-2,1.1-3
	c0.1-0.7,0.8-1.3,0.6-2.1c-0.1-0.6-0.9-0.9-1.4-0.5c-0.2,0.1-0.4,0.4-0.1,0.5c0.3-0.1,0.6-0.5,0.9-0.2c0.4,0.5,0,1.6-0.8,1.5
	c-0.5-0.1-0.6-0.6-0.6-1C102.5,95.9,103.8,93.5,103.2,91.1z"/>
</svg>
